M48
;Layer_Color=9474304
;FILE_FORMAT=4:4
METRIC,LZ
;TYPE=PLATED
T01F00S00C0.3048
T02F00S00C0.7620
;TYPE=NON_PLATED
T03F00S00C0.9906
%
T01
X0021087Y00069875
X00210616Y00092227
X0021849Y00150139
X00262474Y00150393
X00269544Y00146329
X00283514Y00141757
X00291134
X00298246Y00118897
X00299008Y00109753
X00318566Y00118897
X0033147Y00120396
X00331266Y00109499
X00287832Y00075675
Y00067589
X00271576Y00067335
X00271195Y00049428
X002667Y0003937
X002921
X00245668Y00059969
X00276148Y00167919
X00331343Y00493903
X00124714Y0049276
T02
X004191Y000254
X004445
X004699
X004953
X003937
X003683
X003175
X002921
X002667
X002413
X002159
X001905
X001651
X001397
X0014986Y00508
X0012446
X0009906
X0007366
X0004826
X0017526
X0020066
X0022606
X0025146
X0027686
X003175
X003429
X003683
X003937
X004191
X004445
X004699
X004953
T03
X00092944Y00122707
X00167944
M30
