G04*
G04 #@! TF.GenerationSoftware,Altium Limited,Altium Designer,26.1.1 (7)*
G04*
G04 Layer_Color=16711935*
%FSLAX44Y44*%
%MOMM*%
G71*
G04*
G04 #@! TF.SameCoordinates,8D6EEAA2-4152-4A29-9E96-F584E3A43220*
G04*
G04*
G04 #@! TF.FilePolarity,Negative*
G04*
G01*
G75*
%ADD21O,2.0066X1.4986*%
%ADD22C,0.9906*%
%ADD23C,1.6740*%
%ADD24R,1.6740X1.6740*%
%ADD25C,0.7596*%
D21*
X133944Y107706D02*
D03*
X186944Y150208D02*
D03*
Y95208D02*
D03*
D22*
X167944Y122707D02*
D03*
X92944D02*
D03*
D23*
X215900Y25400D02*
D03*
X342900Y508000D02*
D03*
X124460D02*
D03*
X292100Y25400D02*
D03*
X266700D02*
D03*
X444500D02*
D03*
X469900D02*
D03*
X419100D02*
D03*
X393700D02*
D03*
X495300D02*
D03*
X190500D02*
D03*
X241300D02*
D03*
X165100D02*
D03*
X317500D02*
D03*
X393700Y508000D02*
D03*
X368300D02*
D03*
X419100D02*
D03*
X444500D02*
D03*
X469900D02*
D03*
X495300D02*
D03*
X149860D02*
D03*
X99060D02*
D03*
X73660D02*
D03*
X175260D02*
D03*
X200660D02*
D03*
X226060D02*
D03*
X251460D02*
D03*
X276860D02*
D03*
D24*
X368300Y25400D02*
D03*
X317500Y508000D02*
D03*
X139700Y25400D02*
D03*
X48260Y508000D02*
D03*
D25*
X266700Y39370D02*
D03*
X331343Y493903D02*
D03*
X331470Y120396D02*
D03*
X292100Y39370D02*
D03*
X210870Y69875D02*
D03*
X210616Y92227D02*
D03*
X218490Y150139D02*
D03*
X262474Y150393D02*
D03*
X299008Y109753D02*
D03*
X331266Y109499D02*
D03*
X287832Y67589D02*
D03*
X271195Y49428D02*
D03*
X271576Y67335D02*
D03*
X291134Y141757D02*
D03*
X124714Y492760D02*
D03*
X276148Y167919D02*
D03*
X283514Y141757D02*
D03*
X269544Y146329D02*
D03*
X298246Y118897D02*
D03*
X318566D02*
D03*
X287832Y75675D02*
D03*
X245668Y59969D02*
D03*
M02*
