G04*
G04 #@! TF.GenerationSoftware,Altium Limited,Altium Designer,26.1.1 (7)*
G04*
G04 Layer_Color=65535*
%FSLAX44Y44*%
%MOMM*%
G71*
G04*
G04 #@! TF.SameCoordinates,8D6EEAA2-4152-4A29-9E96-F584E3A43220*
G04*
G04*
G04 #@! TF.FilePolarity,Positive*
G04*
G01*
G75*
%ADD10C,0.1500*%
%ADD11C,0.1524*%
D10*
X259058Y55937D02*
Y59937D01*
X249282Y85495D02*
Y89495D01*
X242652Y73685D02*
X246652D01*
X211196Y80321D02*
Y84321D01*
X281006Y157179D02*
X285006D01*
X288880Y126263D02*
X292880D01*
X265855Y163311D02*
X269855D01*
X255606Y163275D02*
X259606D01*
X245446Y163021D02*
X249446D01*
X225126Y162767D02*
X229126D01*
X242112Y180143D02*
Y184143D01*
X225126Y144297D02*
X229126D01*
X203790Y131343D02*
X207790D01*
X219832Y125025D02*
Y129025D01*
X235286Y162839D02*
X239286D01*
X203790Y113055D02*
X207790D01*
X222074Y102459D02*
X226074D01*
X219818Y115213D02*
Y119213D01*
X267752Y85495D02*
Y89495D01*
X258934Y65683D02*
Y69683D01*
X258608Y75589D02*
Y79589D01*
D11*
X190412Y85496D02*
X194168D01*
Y102567D02*
Y142848D01*
X51674Y159918D02*
X183472D01*
X194168Y157567D02*
Y159918D01*
X51674Y121437D02*
X54214D01*
X51674D02*
Y123977D01*
X54214D01*
Y121437D02*
Y123977D01*
X51674Y85496D02*
X183475D01*
X51674D02*
Y159918D01*
X190416D02*
X194168D01*
Y85496D02*
Y87848D01*
X277852Y97889D02*
Y104957D01*
X270784Y141429D02*
X277852D01*
X234312Y134361D02*
Y141429D01*
Y97889D02*
X241380D01*
X234312D02*
Y104957D01*
X270784Y97889D02*
X277852D01*
Y134361D02*
Y141429D01*
X234312D02*
X241380D01*
X338330Y466235D02*
X346456D01*
X338330Y466622D02*
X346456D01*
X338330Y465074D02*
Y467783D01*
X346456Y465074D02*
Y470878D01*
X344134D01*
X346456Y470491D01*
X338330Y474748D02*
X338717Y473587D01*
X339491Y472813D01*
X340265Y472426D01*
X341812Y472039D01*
X342973D01*
X344521Y472426D01*
X345295Y472813D01*
X346069Y473587D01*
X346456Y474748D01*
Y475522D01*
X346069Y476683D01*
X345295Y477457D01*
X344521Y477844D01*
X342973Y478231D01*
X341812D01*
X340265Y477844D01*
X339491Y477457D01*
X338717Y476683D01*
X338330Y475522D01*
Y474748D01*
X338717Y473974D01*
X339491Y473200D01*
X340265Y472813D01*
X341812Y472426D01*
X342973D01*
X344521Y472813D01*
X345295Y473200D01*
X346069Y473974D01*
X346456Y474748D01*
Y475522D02*
X346069Y476296D01*
X345295Y477070D01*
X344521Y477457D01*
X342973Y477844D01*
X341812D01*
X340265Y477457D01*
X339491Y477070D01*
X338717Y476296D01*
X338330Y475522D01*
Y480514D02*
X346456D01*
X338330Y480901D02*
X346456D01*
X338330Y479353D02*
Y483223D01*
X338717Y484384D01*
X339491Y485157D01*
X340265Y485544D01*
X341426Y485931D01*
X343360D01*
X344521Y485544D01*
X345295Y485157D01*
X346069Y484384D01*
X346456Y483223D01*
Y479353D01*
X338330Y483223D02*
X338717Y483997D01*
X339491Y484771D01*
X340265Y485157D01*
X341426Y485544D01*
X343360D01*
X344521Y485157D01*
X345295Y484771D01*
X346069Y483997D01*
X346456Y483223D01*
X342973Y487015D02*
Y493980D01*
X312930Y466235D02*
X321056D01*
X312930Y466622D02*
X321056D01*
X312930Y465074D02*
Y467783D01*
X321056Y465074D02*
Y470878D01*
X318734D01*
X321056Y470491D01*
X312930Y474748D02*
X313317Y473587D01*
X314091Y472813D01*
X314865Y472426D01*
X316412Y472039D01*
X317573D01*
X319121Y472426D01*
X319895Y472813D01*
X320669Y473587D01*
X321056Y474748D01*
Y475522D01*
X320669Y476683D01*
X319895Y477457D01*
X319121Y477844D01*
X317573Y478231D01*
X316412D01*
X314865Y477844D01*
X314091Y477457D01*
X313317Y476683D01*
X312930Y475522D01*
Y474748D01*
X313317Y473974D01*
X314091Y473200D01*
X314865Y472813D01*
X316412Y472426D01*
X317573D01*
X319121Y472813D01*
X319895Y473200D01*
X320669Y473974D01*
X321056Y474748D01*
Y475522D02*
X320669Y476296D01*
X319895Y477070D01*
X319121Y477457D01*
X317573Y477844D01*
X316412D01*
X314865Y477457D01*
X314091Y477070D01*
X313317Y476296D01*
X312930Y475522D01*
Y480514D02*
X321056D01*
X312930Y480901D02*
X321056D01*
X312930Y479353D02*
Y483223D01*
X313317Y484384D01*
X314091Y485157D01*
X314865Y485544D01*
X316026Y485931D01*
X317960D01*
X319121Y485544D01*
X319895Y485157D01*
X320669Y484384D01*
X321056Y483223D01*
Y479353D01*
X312930Y483223D02*
X313317Y483997D01*
X314091Y484771D01*
X314865Y485157D01*
X316026Y485544D01*
X317960D01*
X319121Y485157D01*
X319895Y484771D01*
X320669Y483997D01*
X321056Y483223D01*
X314091Y490498D02*
X321056D01*
X317573Y487015D02*
Y493980D01*
X492000Y478935D02*
X500126D01*
X492000Y479322D02*
X500126D01*
X492000Y477774D02*
Y481644D01*
X492387Y482804D01*
X493161Y483578D01*
X493935Y483965D01*
X495095Y484352D01*
X497030D01*
X498191Y483965D01*
X498965Y483578D01*
X499739Y482804D01*
X500126Y481644D01*
Y477774D01*
X492000Y481644D02*
X492387Y482418D01*
X493161Y483191D01*
X493935Y483578D01*
X495095Y483965D01*
X497030D01*
X498191Y483578D01*
X498965Y483191D01*
X499739Y482418D01*
X500126Y481644D01*
X492000Y487758D02*
X492387Y486597D01*
X493548Y485823D01*
X495482Y485436D01*
X496643D01*
X498578Y485823D01*
X499739Y486597D01*
X500126Y487758D01*
Y488532D01*
X499739Y489692D01*
X498578Y490466D01*
X496643Y490853D01*
X495482D01*
X493548Y490466D01*
X492387Y489692D01*
X492000Y488532D01*
Y487758D01*
X492387Y486984D01*
X492774Y486597D01*
X493548Y486210D01*
X495482Y485823D01*
X496643D01*
X498578Y486210D01*
X499352Y486597D01*
X499739Y486984D01*
X500126Y487758D01*
Y488532D02*
X499739Y489305D01*
X499352Y489692D01*
X498578Y490079D01*
X496643Y490466D01*
X495482D01*
X493548Y490079D01*
X492774Y489692D01*
X492387Y489305D01*
X492000Y488532D01*
X466600Y481475D02*
X474726D01*
X466600Y481862D02*
X474726D01*
X466600Y480314D02*
Y484184D01*
X466987Y485345D01*
X467761Y486119D01*
X468535Y486505D01*
X469696Y486892D01*
X471630D01*
X472791Y486505D01*
X473565Y486119D01*
X474339Y485345D01*
X474726Y484184D01*
Y480314D01*
X466600Y484184D02*
X466987Y484958D01*
X467761Y485732D01*
X468535Y486119D01*
X469696Y486505D01*
X471630D01*
X472791Y486119D01*
X473565Y485732D01*
X474339Y484958D01*
X474726Y484184D01*
X468148Y487976D02*
X467761Y488750D01*
X466600Y489911D01*
X474726D01*
X466987Y489524D02*
X474726D01*
Y487976D02*
Y491459D01*
X441200Y480205D02*
X449326D01*
X441200Y480592D02*
X449326D01*
X441200Y479044D02*
Y482914D01*
X441587Y484075D01*
X442361Y484849D01*
X443135Y485235D01*
X444296Y485622D01*
X446230D01*
X447391Y485235D01*
X448165Y484849D01*
X448939Y484075D01*
X449326Y482914D01*
Y479044D01*
X441200Y482914D02*
X441587Y483688D01*
X442361Y484462D01*
X443135Y484849D01*
X444296Y485235D01*
X446230D01*
X447391Y484849D01*
X448165Y484462D01*
X448939Y483688D01*
X449326Y482914D01*
X442748Y487093D02*
X443135Y487480D01*
X443521Y487093D01*
X443135Y486706D01*
X442748D01*
X441974Y487093D01*
X441587Y487480D01*
X441200Y488641D01*
Y490189D01*
X441587Y491349D01*
X441974Y491736D01*
X442748Y492123D01*
X443521D01*
X444296Y491736D01*
X445069Y490575D01*
X445843Y488641D01*
X446230Y487867D01*
X447004Y487093D01*
X448165Y486706D01*
X449326D01*
X441200Y490189D02*
X441587Y490962D01*
X441974Y491349D01*
X442748Y491736D01*
X443521D01*
X444296Y491349D01*
X445069Y490189D01*
X445843Y488641D01*
X448552Y486706D02*
X448165Y487093D01*
Y487867D01*
X448939Y489802D01*
Y490962D01*
X448552Y491736D01*
X448165Y492123D01*
X447391D01*
X448165Y487867D02*
X449326Y489802D01*
Y491349D01*
X448939Y491736D01*
X448165Y492123D01*
X415800Y480205D02*
X423926D01*
X415800Y480592D02*
X423926D01*
X415800Y479044D02*
Y482914D01*
X416187Y484075D01*
X416961Y484849D01*
X417735Y485235D01*
X418895Y485622D01*
X420830D01*
X421991Y485235D01*
X422765Y484849D01*
X423539Y484075D01*
X423926Y482914D01*
Y479044D01*
X415800Y482914D02*
X416187Y483688D01*
X416961Y484462D01*
X417735Y484849D01*
X418895Y485235D01*
X420830D01*
X421991Y484849D01*
X422765Y484462D01*
X423539Y483688D01*
X423926Y482914D01*
X417348Y487093D02*
X417735Y487480D01*
X418121Y487093D01*
X417735Y486706D01*
X417348D01*
X416574Y487093D01*
X416187Y487480D01*
X415800Y488641D01*
Y490189D01*
X416187Y491349D01*
X416961Y491736D01*
X418121D01*
X418895Y491349D01*
X419282Y490189D01*
Y489028D01*
X415800Y490189D02*
X416187Y490962D01*
X416961Y491349D01*
X418121D01*
X418895Y490962D01*
X419282Y490189D01*
X419669Y490962D01*
X420443Y491736D01*
X421217Y492123D01*
X422378D01*
X423152Y491736D01*
X423539Y491349D01*
X423926Y490189D01*
Y488641D01*
X423539Y487480D01*
X423152Y487093D01*
X422378Y486706D01*
X421991D01*
X421604Y487093D01*
X421991Y487480D01*
X422378Y487093D01*
X420056Y491349D02*
X421217Y491736D01*
X422378D01*
X423152Y491349D01*
X423539Y490962D01*
X423926Y490189D01*
X390400Y480205D02*
X398526D01*
X390400Y480592D02*
X398526D01*
X390400Y479044D02*
Y482914D01*
X390787Y484075D01*
X391561Y484849D01*
X392335Y485235D01*
X393495Y485622D01*
X395430D01*
X396591Y485235D01*
X397365Y484849D01*
X398139Y484075D01*
X398526Y482914D01*
Y479044D01*
X390400Y482914D02*
X390787Y483688D01*
X391561Y484462D01*
X392335Y484849D01*
X393495Y485235D01*
X395430D01*
X396591Y484849D01*
X397365Y484462D01*
X398139Y483688D01*
X398526Y482914D01*
X391174Y490575D02*
X398526D01*
X396204Y492897D02*
Y486706D01*
X390400Y490962D01*
X398526D01*
Y489415D02*
Y492123D01*
X365000Y480205D02*
X373126D01*
X365000Y480592D02*
X373126D01*
X365000Y479044D02*
Y482914D01*
X365387Y484075D01*
X366161Y484849D01*
X366935Y485235D01*
X368096Y485622D01*
X370030D01*
X371191Y485235D01*
X371965Y484849D01*
X372739Y484075D01*
X373126Y482914D01*
Y479044D01*
X365000Y482914D02*
X365387Y483688D01*
X366161Y484462D01*
X366935Y484849D01*
X368096Y485235D01*
X370030D01*
X371191Y484849D01*
X371965Y484462D01*
X372739Y483688D01*
X373126Y482914D01*
X365000Y487480D02*
X368869Y486706D01*
X368096Y487480D01*
X367709Y488641D01*
Y489802D01*
X368096Y490962D01*
X368869Y491736D01*
X370030Y492123D01*
X370804D01*
X371965Y491736D01*
X372739Y490962D01*
X373126Y489802D01*
Y488641D01*
X372739Y487480D01*
X372352Y487093D01*
X371578Y486706D01*
X371191D01*
X370804Y487093D01*
X371191Y487480D01*
X371578Y487093D01*
X367709Y489802D02*
X368096Y490575D01*
X368869Y491349D01*
X370030Y491736D01*
X370804D01*
X371965Y491349D01*
X372739Y490575D01*
X373126Y489802D01*
X365000Y487480D02*
Y491349D01*
X365387Y487480D02*
Y489415D01*
X365000Y491349D01*
X272290Y480205D02*
X280416D01*
X272290Y480592D02*
X280416D01*
X272290Y479044D02*
Y482914D01*
X272677Y484075D01*
X273451Y484849D01*
X274225Y485235D01*
X275385Y485622D01*
X277320D01*
X278481Y485235D01*
X279255Y484849D01*
X280029Y484075D01*
X280416Y482914D01*
Y479044D01*
X272290Y482914D02*
X272677Y483688D01*
X273451Y484462D01*
X274225Y484849D01*
X275385Y485235D01*
X277320D01*
X278481Y484849D01*
X279255Y484462D01*
X280029Y483688D01*
X280416Y482914D01*
X272290Y488641D02*
X272677Y487480D01*
X273451Y487093D01*
X274611D01*
X275385Y487480D01*
X275772Y488641D01*
Y490189D01*
X275385Y491349D01*
X274611Y491736D01*
X273451D01*
X272677Y491349D01*
X272290Y490189D01*
Y488641D01*
X272677Y487867D01*
X273451Y487480D01*
X274611D01*
X275385Y487867D01*
X275772Y488641D01*
Y490189D02*
X275385Y490962D01*
X274611Y491349D01*
X273451D01*
X272677Y490962D01*
X272290Y490189D01*
X275772Y488641D02*
X276159Y487480D01*
X276546Y487093D01*
X277320Y486706D01*
X278868D01*
X279642Y487093D01*
X280029Y487480D01*
X280416Y488641D01*
Y490189D01*
X280029Y491349D01*
X279642Y491736D01*
X278868Y492123D01*
X277320D01*
X276546Y491736D01*
X276159Y491349D01*
X275772Y490189D01*
Y488641D02*
X276159Y487867D01*
X276546Y487480D01*
X277320Y487093D01*
X278868D01*
X279642Y487480D01*
X280029Y487867D01*
X280416Y488641D01*
Y490189D02*
X280029Y490962D01*
X279642Y491349D01*
X278868Y491736D01*
X277320D01*
X276546Y491349D01*
X276159Y490962D01*
X275772Y490189D01*
X246890Y481475D02*
X255016D01*
X246890Y481862D02*
X255016D01*
X246890Y480314D02*
Y484184D01*
X247277Y485345D01*
X248051Y486119D01*
X248825Y486505D01*
X249986Y486892D01*
X251920D01*
X253081Y486505D01*
X253855Y486119D01*
X254629Y485345D01*
X255016Y484184D01*
Y480314D01*
X246890Y484184D02*
X247277Y484958D01*
X248051Y485732D01*
X248825Y486119D01*
X249986Y486505D01*
X251920D01*
X253081Y486119D01*
X253855Y485732D01*
X254629Y484958D01*
X255016Y484184D01*
X249599Y493007D02*
X250759Y492620D01*
X251533Y491846D01*
X251920Y490685D01*
Y490298D01*
X251533Y489137D01*
X250759Y488363D01*
X249599Y487976D01*
X249212D01*
X248051Y488363D01*
X247277Y489137D01*
X246890Y490298D01*
Y491072D01*
X247277Y492233D01*
X248051Y493007D01*
X249212Y493393D01*
X251533D01*
X253081Y493007D01*
X253855Y492620D01*
X254629Y491846D01*
X255016Y490685D01*
Y489524D01*
X254629Y488750D01*
X253855Y488363D01*
X253468D01*
X253081Y488750D01*
X253468Y489137D01*
X253855Y488750D01*
X251920Y490298D02*
X251533Y489524D01*
X250759Y488750D01*
X249599Y488363D01*
X249212D01*
X248051Y488750D01*
X247277Y489524D01*
X246890Y490298D01*
Y491072D02*
X247277Y491846D01*
X248051Y492620D01*
X249212Y493007D01*
X251533D01*
X253081Y492620D01*
X253855Y492233D01*
X254629Y491459D01*
X255016Y490685D01*
X221490Y477665D02*
X229616D01*
X221490Y478052D02*
X229616D01*
X221490Y476504D02*
Y480374D01*
X221877Y481535D01*
X222651Y482309D01*
X223425Y482695D01*
X224585Y483082D01*
X226520D01*
X227681Y482695D01*
X228455Y482309D01*
X229229Y481535D01*
X229616Y480374D01*
Y476504D01*
X221490Y480374D02*
X221877Y481148D01*
X222651Y481922D01*
X223425Y482309D01*
X224585Y482695D01*
X226520D01*
X227681Y482309D01*
X228455Y481922D01*
X229229Y481148D01*
X229616Y480374D01*
X223038Y484166D02*
X222651Y484940D01*
X221490Y486101D01*
X229616D01*
X221877Y485714D02*
X229616D01*
Y484166D02*
Y487649D01*
X221490Y491363D02*
X221877Y490203D01*
X223038Y489429D01*
X224972Y489042D01*
X226133D01*
X228068Y489429D01*
X229229Y490203D01*
X229616Y491363D01*
Y492137D01*
X229229Y493298D01*
X228068Y494072D01*
X226133Y494459D01*
X224972D01*
X223038Y494072D01*
X221877Y493298D01*
X221490Y492137D01*
Y491363D01*
X221877Y490589D01*
X222264Y490203D01*
X223038Y489816D01*
X224972Y489429D01*
X226133D01*
X228068Y489816D01*
X228842Y490203D01*
X229229Y490589D01*
X229616Y491363D01*
Y492137D02*
X229229Y492911D01*
X228842Y493298D01*
X228068Y493685D01*
X226133Y494072D01*
X224972D01*
X223038Y493685D01*
X222264Y493298D01*
X221877Y492911D01*
X221490Y492137D01*
X196090Y480205D02*
X204216D01*
X196090Y480592D02*
X204216D01*
X196090Y479044D02*
Y482914D01*
X196477Y484075D01*
X197251Y484849D01*
X198025Y485235D01*
X199186Y485622D01*
X201120D01*
X202281Y485235D01*
X203055Y484849D01*
X203829Y484075D01*
X204216Y482914D01*
Y479044D01*
X196090Y482914D02*
X196477Y483688D01*
X197251Y484462D01*
X198025Y484849D01*
X199186Y485235D01*
X201120D01*
X202281Y484849D01*
X203055Y484462D01*
X203829Y483688D01*
X204216Y482914D01*
X197638Y486706D02*
X197251Y487480D01*
X196090Y488641D01*
X204216D01*
X196477Y488254D02*
X204216D01*
Y486706D02*
Y490189D01*
X197638Y491582D02*
X197251Y492356D01*
X196090Y493517D01*
X204216D01*
X196477Y493130D02*
X204216D01*
Y491582D02*
Y495064D01*
X170690Y478935D02*
X178816D01*
X170690Y479322D02*
X178816D01*
X170690Y477774D02*
Y481644D01*
X171077Y482804D01*
X171851Y483578D01*
X172625Y483965D01*
X173785Y484352D01*
X175720D01*
X176881Y483965D01*
X177655Y483578D01*
X178429Y482804D01*
X178816Y481644D01*
Y477774D01*
X170690Y481644D02*
X171077Y482418D01*
X171851Y483191D01*
X172625Y483578D01*
X173785Y483965D01*
X175720D01*
X176881Y483578D01*
X177655Y483191D01*
X178429Y482418D01*
X178816Y481644D01*
X172238Y485436D02*
X171851Y486210D01*
X170690Y487371D01*
X178816D01*
X171077Y486984D02*
X178816D01*
Y485436D02*
Y488919D01*
X172238Y490699D02*
X172625Y491086D01*
X173011Y490699D01*
X172625Y490312D01*
X172238D01*
X171464Y490699D01*
X171077Y491086D01*
X170690Y492247D01*
Y493794D01*
X171077Y494955D01*
X171464Y495342D01*
X172238Y495729D01*
X173011D01*
X173785Y495342D01*
X174559Y494181D01*
X175333Y492247D01*
X175720Y491473D01*
X176494Y490699D01*
X177655Y490312D01*
X178816D01*
X170690Y493794D02*
X171077Y494568D01*
X171464Y494955D01*
X172238Y495342D01*
X173011D01*
X173785Y494955D01*
X174559Y493794D01*
X175333Y492247D01*
X178042Y490312D02*
X177655Y490699D01*
Y491473D01*
X178429Y493407D01*
Y494568D01*
X178042Y495342D01*
X177655Y495729D01*
X176881D01*
X177655Y491473D02*
X178816Y493407D01*
Y494955D01*
X178429Y495342D01*
X177655Y495729D01*
X121051Y469221D02*
X122212Y469608D01*
X119890D01*
X121051Y469221D01*
X120277Y468448D01*
X119890Y467287D01*
Y466513D01*
X120277Y465352D01*
X121051Y464578D01*
X121825Y464191D01*
X122985Y463804D01*
X124920D01*
X126081Y464191D01*
X126855Y464578D01*
X127629Y465352D01*
X128016Y466513D01*
Y467287D01*
X127629Y468448D01*
X126855Y469221D01*
X119890Y466513D02*
X120277Y465739D01*
X121051Y464965D01*
X121825Y464578D01*
X122985Y464191D01*
X124920D01*
X126081Y464578D01*
X126855Y464965D01*
X127629Y465739D01*
X128016Y466513D01*
X124920Y469221D02*
X128016D01*
X124920Y469608D02*
X128016D01*
X124920Y468061D02*
Y470769D01*
X119890Y472975D02*
X128016D01*
X119890Y473362D02*
X127242Y478006D01*
X120664Y473362D02*
X128016Y478006D01*
X119890D02*
X128016D01*
X119890Y471814D02*
Y473362D01*
Y476845D02*
Y479166D01*
X128016Y471814D02*
Y474136D01*
X119890Y481334D02*
X128016D01*
X119890Y481720D02*
X128016D01*
X119890Y480173D02*
Y484042D01*
X120277Y485203D01*
X121051Y485977D01*
X121825Y486364D01*
X122985Y486751D01*
X124920D01*
X126081Y486364D01*
X126855Y485977D01*
X127629Y485203D01*
X128016Y484042D01*
Y480173D01*
X119890Y484042D02*
X120277Y484816D01*
X121051Y485590D01*
X121825Y485977D01*
X122985Y486364D01*
X124920D01*
X126081Y485977D01*
X126855Y485590D01*
X127629Y484816D01*
X128016Y484042D01*
X145290Y478935D02*
X153416D01*
X145290Y479322D02*
X153416D01*
X145290Y477774D02*
Y481644D01*
X145677Y482804D01*
X146451Y483578D01*
X147225Y483965D01*
X148385Y484352D01*
X150320D01*
X151481Y483965D01*
X152255Y483578D01*
X153029Y482804D01*
X153416Y481644D01*
Y477774D01*
X145290Y481644D02*
X145677Y482418D01*
X146451Y483191D01*
X147225Y483578D01*
X148385Y483965D01*
X150320D01*
X151481Y483578D01*
X152255Y483191D01*
X153029Y482418D01*
X153416Y481644D01*
X146838Y485436D02*
X146451Y486210D01*
X145290Y487371D01*
X153416D01*
X145677Y486984D02*
X153416D01*
Y485436D02*
Y488919D01*
X146838Y490699D02*
X147225Y491086D01*
X147612Y490699D01*
X147225Y490312D01*
X146838D01*
X146064Y490699D01*
X145677Y491086D01*
X145290Y492247D01*
Y493794D01*
X145677Y494955D01*
X146451Y495342D01*
X147612D01*
X148385Y494955D01*
X148772Y493794D01*
Y492634D01*
X145290Y493794D02*
X145677Y494568D01*
X146451Y494955D01*
X147612D01*
X148385Y494568D01*
X148772Y493794D01*
X149159Y494568D01*
X149933Y495342D01*
X150707Y495729D01*
X151868D01*
X152642Y495342D01*
X153029Y494955D01*
X153416Y493794D01*
Y492247D01*
X153029Y491086D01*
X152642Y490699D01*
X151868Y490312D01*
X151481D01*
X151094Y490699D01*
X151481Y491086D01*
X151868Y490699D01*
X149546Y494955D02*
X150707Y495342D01*
X151868D01*
X152642Y494955D01*
X153029Y494568D01*
X153416Y493794D01*
X94490Y469827D02*
X102616Y467118D01*
X94490Y469827D02*
X102616Y472535D01*
X95651Y469827D02*
X102616Y472149D01*
X100294Y467892D02*
Y471375D01*
X102616Y466344D02*
Y468666D01*
Y470988D02*
Y473309D01*
X94490Y475515D02*
X102616D01*
X94490Y475902D02*
X102616D01*
X94490Y474354D02*
Y478998D01*
X94877Y480159D01*
X95264Y480546D01*
X96038Y480933D01*
X96812D01*
X97585Y480546D01*
X97972Y480159D01*
X98359Y478998D01*
Y475902D01*
X94490Y478998D02*
X94877Y479772D01*
X95264Y480159D01*
X96038Y480546D01*
X96812D01*
X97585Y480159D01*
X97972Y479772D01*
X98359Y478998D01*
X102616Y474354D02*
Y477063D01*
X98359Y477837D02*
X98746Y478611D01*
X99133Y478998D01*
X101842Y480159D01*
X102229Y480546D01*
Y480933D01*
X101842Y481320D01*
X98746Y478611D02*
X99520Y478998D01*
X102229Y479772D01*
X102616Y480159D01*
Y480933D01*
X101842Y481320D01*
X101455D01*
X94490Y483525D02*
X102616D01*
X94490Y483912D02*
X102616D01*
X96812Y486234D02*
X99907D01*
X94490Y482364D02*
Y488556D01*
X96812D01*
X94490Y488169D01*
X98359Y483912D02*
Y486234D01*
X102616Y482364D02*
Y488556D01*
X100294D01*
X102616Y488169D01*
X94490Y490839D02*
X102616D01*
X94490Y491226D02*
X102616D01*
X96812Y493548D02*
X99907D01*
X94490Y489678D02*
Y495869D01*
X96812D01*
X94490Y495482D01*
X98359Y491226D02*
Y493548D01*
X102616Y489678D02*
Y492387D01*
X70251Y480265D02*
X69090Y480652D01*
X71411D01*
X70251Y480265D01*
X69477Y479491D01*
X69090Y478330D01*
Y477169D01*
X69477Y476008D01*
X70251Y475234D01*
X71025D01*
X71799Y475621D01*
X72186Y476008D01*
X72572Y476782D01*
X73346Y479104D01*
X73733Y479878D01*
X74507Y480652D01*
X71025Y475234D02*
X71799Y476008D01*
X72186Y476782D01*
X72959Y479104D01*
X73346Y479878D01*
X73733Y480265D01*
X74507Y480652D01*
X76055D01*
X76829Y479878D01*
X77216Y478717D01*
Y477556D01*
X76829Y476395D01*
X76055Y475621D01*
X74894Y475234D01*
X77216D01*
X76055Y475621D01*
X69090Y483012D02*
X77216D01*
X69090Y483399D02*
X77216D01*
X69090Y481851D02*
Y485721D01*
X69477Y486882D01*
X70251Y487656D01*
X71025Y488042D01*
X72186Y488429D01*
X74120D01*
X75281Y488042D01*
X76055Y487656D01*
X76829Y486882D01*
X77216Y485721D01*
Y481851D01*
X69090Y485721D02*
X69477Y486495D01*
X70251Y487269D01*
X71025Y487656D01*
X72186Y488042D01*
X74120D01*
X75281Y487656D01*
X76055Y487269D01*
X76829Y486495D01*
X77216Y485721D01*
X69090Y492996D02*
X77216Y490287D01*
X69090Y492996D02*
X77216Y495704D01*
X70251Y492996D02*
X77216Y495317D01*
X74894Y491061D02*
Y494544D01*
X77216Y489513D02*
Y491835D01*
Y494157D02*
Y496478D01*
X44851Y481535D02*
X43690Y481922D01*
X46012D01*
X44851Y481535D01*
X44077Y480761D01*
X43690Y479600D01*
Y478439D01*
X44077Y477278D01*
X44851Y476504D01*
X45625D01*
X46399Y476891D01*
X46785Y477278D01*
X47172Y478052D01*
X47946Y480374D01*
X48333Y481148D01*
X49107Y481922D01*
X45625Y476504D02*
X46399Y477278D01*
X46785Y478052D01*
X47559Y480374D01*
X47946Y481148D01*
X48333Y481535D01*
X49107Y481922D01*
X50655D01*
X51429Y481148D01*
X51816Y479987D01*
Y478826D01*
X51429Y477665D01*
X50655Y476891D01*
X49494Y476504D01*
X51816D01*
X50655Y476891D01*
X44851Y488539D02*
X46012Y488926D01*
X43690D01*
X44851Y488539D01*
X44077Y487765D01*
X43690Y486604D01*
Y485830D01*
X44077Y484669D01*
X44851Y483895D01*
X45625Y483508D01*
X46785Y483121D01*
X48720D01*
X49881Y483508D01*
X50655Y483895D01*
X51429Y484669D01*
X51816Y485830D01*
Y486604D01*
X51429Y487765D01*
X50655Y488539D01*
X49881Y488926D01*
X43690Y485830D02*
X44077Y485056D01*
X44851Y484282D01*
X45625Y483895D01*
X46785Y483508D01*
X48720D01*
X49881Y483895D01*
X50655Y484282D01*
X51429Y485056D01*
X51816Y485830D01*
X43690Y491247D02*
X51816D01*
X43690Y491634D02*
X51816D01*
X43690Y490087D02*
Y492795D01*
X51816Y490087D02*
Y495891D01*
X49494D01*
X51816Y495504D01*
X492000Y40567D02*
X500126Y37858D01*
X492000Y40567D02*
X500126Y43275D01*
X493161Y40567D02*
X500126Y42888D01*
X497804Y38632D02*
Y42115D01*
X500126Y37084D02*
Y39406D01*
Y41728D02*
Y44049D01*
X492000Y45868D02*
X495869Y45094D01*
X495095Y45868D01*
X494709Y47029D01*
Y48190D01*
X495095Y49351D01*
X495869Y50125D01*
X497030Y50512D01*
X497804D01*
X498965Y50125D01*
X499739Y49351D01*
X500126Y48190D01*
Y47029D01*
X499739Y45868D01*
X499352Y45481D01*
X498578Y45094D01*
X498191D01*
X497804Y45481D01*
X498191Y45868D01*
X498578Y45481D01*
X494709Y48190D02*
X495095Y48964D01*
X495869Y49738D01*
X497030Y50125D01*
X497804D01*
X498965Y49738D01*
X499739Y48964D01*
X500126Y48190D01*
X492000Y45868D02*
Y49738D01*
X492387Y45868D02*
Y47803D01*
X492000Y49738D01*
X466600Y40567D02*
X474726Y37858D01*
X466600Y40567D02*
X474726Y43275D01*
X467761Y40567D02*
X474726Y42888D01*
X472404Y38632D02*
Y42115D01*
X474726Y37084D02*
Y39406D01*
Y41728D02*
Y44049D01*
X467374Y48964D02*
X474726D01*
X472404Y51286D02*
Y45094D01*
X466600Y49351D01*
X474726D01*
Y47803D02*
Y50512D01*
X441200Y40567D02*
X449326Y37858D01*
X441200Y40567D02*
X449326Y43275D01*
X442361Y40567D02*
X449326Y42888D01*
X447004Y38632D02*
Y42115D01*
X449326Y37084D02*
Y39406D01*
Y41728D02*
Y44049D01*
X442748Y45481D02*
X443135Y45868D01*
X443521Y45481D01*
X443135Y45094D01*
X442748D01*
X441974Y45481D01*
X441587Y45868D01*
X441200Y47029D01*
Y48577D01*
X441587Y49738D01*
X442361Y50125D01*
X443521D01*
X444296Y49738D01*
X444682Y48577D01*
Y47416D01*
X441200Y48577D02*
X441587Y49351D01*
X442361Y49738D01*
X443521D01*
X444296Y49351D01*
X444682Y48577D01*
X445069Y49351D01*
X445843Y50125D01*
X446617Y50512D01*
X447778D01*
X448552Y50125D01*
X448939Y49738D01*
X449326Y48577D01*
Y47029D01*
X448939Y45868D01*
X448552Y45481D01*
X447778Y45094D01*
X447391D01*
X447004Y45481D01*
X447391Y45868D01*
X447778Y45481D01*
X445456Y49738D02*
X446617Y50125D01*
X447778D01*
X448552Y49738D01*
X448939Y49351D01*
X449326Y48577D01*
X415800Y40567D02*
X423926Y37858D01*
X415800Y40567D02*
X423926Y43275D01*
X416961Y40567D02*
X423926Y42888D01*
X421604Y38632D02*
Y42115D01*
X423926Y37084D02*
Y39406D01*
Y41728D02*
Y44049D01*
X417348Y45481D02*
X417735Y45868D01*
X418121Y45481D01*
X417735Y45094D01*
X417348D01*
X416574Y45481D01*
X416187Y45868D01*
X415800Y47029D01*
Y48577D01*
X416187Y49738D01*
X416574Y50125D01*
X417348Y50512D01*
X418121D01*
X418895Y50125D01*
X419669Y48964D01*
X420443Y47029D01*
X420830Y46255D01*
X421604Y45481D01*
X422765Y45094D01*
X423926D01*
X415800Y48577D02*
X416187Y49351D01*
X416574Y49738D01*
X417348Y50125D01*
X418121D01*
X418895Y49738D01*
X419669Y48577D01*
X420443Y47029D01*
X423152Y45094D02*
X422765Y45481D01*
Y46255D01*
X423539Y48190D01*
Y49351D01*
X423152Y50125D01*
X422765Y50512D01*
X421991D01*
X422765Y46255D02*
X423926Y48190D01*
Y49738D01*
X423539Y50125D01*
X422765Y50512D01*
X390400Y40567D02*
X398526Y37858D01*
X390400Y40567D02*
X398526Y43275D01*
X391561Y40567D02*
X398526Y42888D01*
X396204Y38632D02*
Y42115D01*
X398526Y37084D02*
Y39406D01*
Y41728D02*
Y44049D01*
X391948Y45094D02*
X391561Y45868D01*
X390400Y47029D01*
X398526D01*
X390787Y46642D02*
X398526D01*
Y45094D02*
Y48577D01*
X365000Y39793D02*
X365387Y38632D01*
X366161Y37858D01*
X366935Y37471D01*
X368482Y37084D01*
X369643D01*
X371191Y37471D01*
X371965Y37858D01*
X372739Y38632D01*
X373126Y39793D01*
Y40567D01*
X372739Y41728D01*
X371965Y42502D01*
X371191Y42888D01*
X369643Y43275D01*
X368482D01*
X366935Y42888D01*
X366161Y42502D01*
X365387Y41728D01*
X365000Y40567D01*
Y39793D01*
X365387Y39019D01*
X366161Y38245D01*
X366935Y37858D01*
X368482Y37471D01*
X369643D01*
X371191Y37858D01*
X371965Y38245D01*
X372739Y39019D01*
X373126Y39793D01*
Y40567D02*
X372739Y41341D01*
X371965Y42115D01*
X371191Y42502D01*
X369643Y42888D01*
X368482D01*
X366935Y42502D01*
X366161Y42115D01*
X365387Y41341D01*
X365000Y40567D01*
Y45559D02*
X370804D01*
X371965Y45946D01*
X372739Y46719D01*
X373126Y47880D01*
Y48654D01*
X372739Y49815D01*
X371965Y50589D01*
X370804Y50976D01*
X365000D01*
Y45946D02*
X370804D01*
X371965Y46332D01*
X372739Y47106D01*
X373126Y47880D01*
X365000Y44398D02*
Y47106D01*
Y49815D02*
Y52137D01*
Y55813D02*
X373126D01*
X365000Y56200D02*
X373126D01*
X365000Y53491D02*
X367322Y53104D01*
X365000D01*
Y58909D01*
X367322D01*
X365000Y58522D01*
X373126Y54652D02*
Y57361D01*
X314200Y37858D02*
X322326Y40567D01*
X314200Y38245D02*
X321165Y40567D01*
X314200Y43275D02*
X322326Y40567D01*
X314200Y37084D02*
Y39406D01*
Y41728D02*
Y44049D01*
Y46255D02*
X322326D01*
X314200Y46642D02*
X322326D01*
X314200Y45094D02*
Y47803D01*
X322326Y45094D02*
Y47803D01*
X314200Y50434D02*
X322326D01*
X314200Y50821D02*
X321552Y55465D01*
X314974Y50821D02*
X322326Y55465D01*
X314200D02*
X322326D01*
X314200Y49273D02*
Y50821D01*
Y54304D02*
Y56626D01*
X322326Y49273D02*
Y51595D01*
X237492Y35826D02*
X241361Y35052D01*
X240588Y35826D01*
X240201Y36987D01*
Y38148D01*
X240588Y39309D01*
X241361Y40083D01*
X242522Y40469D01*
X243296D01*
X244457Y40083D01*
X245231Y39309D01*
X245618Y38148D01*
Y36987D01*
X245231Y35826D01*
X244844Y35439D01*
X244070Y35052D01*
X243683D01*
X243296Y35439D01*
X243683Y35826D01*
X244070Y35439D01*
X240201Y38148D02*
X240588Y38922D01*
X241361Y39696D01*
X242522Y40083D01*
X243296D01*
X244457Y39696D01*
X245231Y38922D01*
X245618Y38148D01*
X237492Y35826D02*
Y39696D01*
X237879Y35826D02*
Y37761D01*
X237492Y39696D01*
Y42443D02*
X245618Y45152D01*
X237492Y42830D02*
X244457Y45152D01*
X237492Y47860D02*
X245618Y45152D01*
X237492Y41669D02*
Y43991D01*
Y46313D02*
Y48635D01*
X187200Y36975D02*
X195326D01*
X187200Y37362D02*
X195326D01*
X187200Y35814D02*
Y40458D01*
X187587Y41618D01*
X187974Y42005D01*
X188748Y42392D01*
X189522D01*
X190296Y42005D01*
X190682Y41618D01*
X191069Y40458D01*
Y37362D01*
X187200Y40458D02*
X187587Y41231D01*
X187974Y41618D01*
X188748Y42005D01*
X189522D01*
X190296Y41618D01*
X190682Y41231D01*
X191069Y40458D01*
X195326Y35814D02*
Y38523D01*
X191069Y39297D02*
X191456Y40071D01*
X191843Y40458D01*
X194552Y41618D01*
X194939Y42005D01*
Y42392D01*
X194552Y42779D01*
X191456Y40071D02*
X192230Y40458D01*
X194939Y41231D01*
X195326Y41618D01*
Y42392D01*
X194552Y42779D01*
X194165D01*
X187200Y44985D02*
X195326D01*
X187200Y45372D02*
X195326D01*
X189522Y47694D02*
X192617D01*
X187200Y43824D02*
Y50016D01*
X189522D01*
X187200Y49629D01*
X191069Y45372D02*
Y47694D01*
X195326Y43824D02*
Y50016D01*
X193004D01*
X195326Y49629D01*
X188361Y56168D02*
X187200Y56555D01*
X189522D01*
X188361Y56168D01*
X187587Y55394D01*
X187200Y54233D01*
Y53073D01*
X187587Y51912D01*
X188361Y51138D01*
X189135D01*
X189909Y51525D01*
X190296Y51912D01*
X190682Y52686D01*
X191456Y55007D01*
X191843Y55781D01*
X192617Y56555D01*
X189135Y51138D02*
X189909Y51912D01*
X190296Y52686D01*
X191069Y55007D01*
X191456Y55781D01*
X191843Y56168D01*
X192617Y56555D01*
X194165D01*
X194939Y55781D01*
X195326Y54620D01*
Y53460D01*
X194939Y52299D01*
X194165Y51525D01*
X193004Y51138D01*
X195326D01*
X194165Y51525D01*
X187200Y58916D02*
X195326D01*
X187200Y59303D02*
X195326D01*
X189522Y61624D02*
X192617D01*
X187200Y57755D02*
Y63946D01*
X189522D01*
X187200Y63559D01*
X191069Y59303D02*
Y61624D01*
X195326Y57755D02*
Y63946D01*
X193004D01*
X195326Y63559D01*
X187200Y67777D02*
X195326D01*
X187200Y68164D02*
X195326D01*
X187200Y65455D02*
X189522Y65068D01*
X187200D01*
Y70873D01*
X189522D01*
X187200Y70486D01*
X195326Y66616D02*
Y69325D01*
X161800Y36975D02*
X169926D01*
X161800Y37362D02*
X169926D01*
X161800Y35814D02*
Y38523D01*
X169926Y35814D02*
Y38523D01*
X161800Y42702D02*
X162187Y41541D01*
X162961Y40767D01*
X163735Y40380D01*
X165282Y39993D01*
X166443D01*
X167991Y40380D01*
X168765Y40767D01*
X169539Y41541D01*
X169926Y42702D01*
Y43476D01*
X169539Y44637D01*
X168765Y45411D01*
X167991Y45798D01*
X166443Y46185D01*
X165282D01*
X163735Y45798D01*
X162961Y45411D01*
X162187Y44637D01*
X161800Y43476D01*
Y42702D01*
X162187Y41928D01*
X162961Y41154D01*
X163735Y40767D01*
X165282Y40380D01*
X166443D01*
X167991Y40767D01*
X168765Y41154D01*
X169539Y41928D01*
X169926Y42702D01*
Y43476D02*
X169539Y44250D01*
X168765Y45024D01*
X167991Y45411D01*
X166443Y45798D01*
X165282D01*
X163735Y45411D01*
X162961Y45024D01*
X162187Y44250D01*
X161800Y43476D01*
Y48468D02*
X169926D01*
X161800Y48855D02*
X169926D01*
X161800Y47307D02*
Y51950D01*
X162187Y53111D01*
X162574Y53498D01*
X163348Y53885D01*
X164121D01*
X164895Y53498D01*
X165282Y53111D01*
X165669Y51950D01*
Y48855D01*
X161800Y51950D02*
X162187Y52724D01*
X162574Y53111D01*
X163348Y53498D01*
X164121D01*
X164895Y53111D01*
X165282Y52724D01*
X165669Y51950D01*
X169926Y47307D02*
Y50016D01*
X165669Y50789D02*
X166056Y51563D01*
X166443Y51950D01*
X169152Y53111D01*
X169539Y53498D01*
Y53885D01*
X169152Y54272D01*
X166056Y51563D02*
X166830Y51950D01*
X169539Y52724D01*
X169926Y53111D01*
Y53885D01*
X169152Y54272D01*
X168765D01*
X161800Y56478D02*
X169926D01*
X161800Y56865D02*
X169926D01*
X164121Y59187D02*
X167217D01*
X161800Y55317D02*
Y61508D01*
X164121D01*
X161800Y61122D01*
X165669Y56865D02*
Y59187D01*
X169926Y55317D02*
Y61508D01*
X167604D01*
X169926Y61122D01*
X161800Y63791D02*
X169926D01*
X161800Y64179D02*
X169926D01*
X164121Y66500D02*
X167217D01*
X161800Y62631D02*
Y68822D01*
X164121D01*
X161800Y68435D01*
X165669Y64179D02*
Y66500D01*
X169926Y62631D02*
Y65339D01*
X136400Y36975D02*
X144526D01*
X136400Y37362D02*
X144526D01*
X136400Y35814D02*
Y40458D01*
X136787Y41618D01*
X137174Y42005D01*
X137948Y42392D01*
X138722D01*
X139495Y42005D01*
X139882Y41618D01*
X140269Y40458D01*
X136400D02*
X136787Y41231D01*
X137174Y41618D01*
X137948Y42005D01*
X138722D01*
X139495Y41618D01*
X139882Y41231D01*
X140269Y40458D01*
Y37362D02*
Y40458D01*
X140656Y41618D01*
X141043Y42005D01*
X141817Y42392D01*
X142978D01*
X143752Y42005D01*
X144139Y41618D01*
X144526Y40458D01*
Y35814D01*
X140269Y40458D02*
X140656Y41231D01*
X141043Y41618D01*
X141817Y42005D01*
X142978D01*
X143752Y41618D01*
X144139Y41231D01*
X144526Y40458D01*
X136400Y46185D02*
X136787Y45024D01*
X137561Y44250D01*
X138335Y43863D01*
X139882Y43476D01*
X141043D01*
X142591Y43863D01*
X143365Y44250D01*
X144139Y45024D01*
X144526Y46185D01*
Y46959D01*
X144139Y48120D01*
X143365Y48893D01*
X142591Y49280D01*
X141043Y49667D01*
X139882D01*
X138335Y49280D01*
X137561Y48893D01*
X136787Y48120D01*
X136400Y46959D01*
Y46185D01*
X136787Y45411D01*
X137561Y44637D01*
X138335Y44250D01*
X139882Y43863D01*
X141043D01*
X142591Y44250D01*
X143365Y44637D01*
X144139Y45411D01*
X144526Y46185D01*
Y46959D02*
X144139Y47733D01*
X143365Y48506D01*
X142591Y48893D01*
X141043Y49280D01*
X139882D01*
X138335Y48893D01*
X137561Y48506D01*
X136787Y47733D01*
X136400Y46959D01*
Y53498D02*
X136787Y52337D01*
X137561Y51564D01*
X138335Y51177D01*
X139882Y50789D01*
X141043D01*
X142591Y51177D01*
X143365Y51564D01*
X144139Y52337D01*
X144526Y53498D01*
Y54272D01*
X144139Y55433D01*
X143365Y56207D01*
X142591Y56594D01*
X141043Y56981D01*
X139882D01*
X138335Y56594D01*
X137561Y56207D01*
X136787Y55433D01*
X136400Y54272D01*
Y53498D01*
X136787Y52724D01*
X137561Y51950D01*
X138335Y51564D01*
X139882Y51177D01*
X141043D01*
X142591Y51564D01*
X143365Y51950D01*
X144139Y52724D01*
X144526Y53498D01*
Y54272D02*
X144139Y55046D01*
X143365Y55820D01*
X142591Y56207D01*
X141043Y56594D01*
X139882D01*
X138335Y56207D01*
X137561Y55820D01*
X136787Y55046D01*
X136400Y54272D01*
Y60812D02*
X144526D01*
X136400Y61199D02*
X144526D01*
X136400Y58490D02*
X138722Y58103D01*
X136400D01*
Y63908D01*
X138722D01*
X136400Y63521D01*
X144526Y59651D02*
Y62360D01*
X300470Y63100D02*
X300857Y61939D01*
Y64261D01*
X300470Y63100D01*
X299696Y63874D01*
X298535Y64261D01*
X297761D01*
X296600Y63874D01*
X295826Y63100D01*
X295439Y62326D01*
X295053Y61165D01*
Y59231D01*
X295439Y58070D01*
X295826Y57296D01*
X296600Y56522D01*
X297761Y56135D01*
X298535D01*
X299696Y56522D01*
X300470Y57296D01*
X300857Y58070D01*
X297761Y64261D02*
X296987Y63874D01*
X296213Y63100D01*
X295826Y62326D01*
X295439Y61165D01*
Y59231D01*
X295826Y58070D01*
X296213Y57296D01*
X296987Y56522D01*
X297761Y56135D01*
X302018Y64261D02*
Y61939D01*
Y62713D02*
X302405Y63487D01*
X303179Y64261D01*
X303953D01*
X305888Y63100D01*
X306661D01*
X307048Y63487D01*
X307435Y64261D01*
X302405Y63487D02*
X303179Y63874D01*
X303953D01*
X305888Y63100D01*
X307435Y64261D02*
Y63100D01*
X307048Y61939D01*
X305501Y60005D01*
X305114Y59231D01*
X304727Y58070D01*
Y56135D01*
X307048Y61939D02*
X305114Y60005D01*
X304727Y59231D01*
X304340Y58070D01*
Y56135D01*
X174693Y114831D02*
Y106705D01*
X175080Y114831D02*
Y106705D01*
X173532Y114831D02*
X178176D01*
X179336Y114444D01*
X179723Y114057D01*
X180110Y113283D01*
Y112509D01*
X179723Y111735D01*
X179336Y111349D01*
X178176Y110962D01*
X175080D01*
X178176Y114831D02*
X178949Y114444D01*
X179336Y114057D01*
X179723Y113283D01*
Y112509D01*
X179336Y111735D01*
X178949Y111349D01*
X178176Y110962D01*
X173532Y106705D02*
X176241D01*
X177015Y110962D02*
X177789Y110575D01*
X178176Y110188D01*
X179336Y107479D01*
X179723Y107092D01*
X180110D01*
X180497Y107479D01*
X177789Y110575D02*
X178176Y109801D01*
X178949Y107092D01*
X179336Y106705D01*
X180110D01*
X180497Y107479D01*
Y107866D01*
X185025Y114831D02*
X182316Y106705D01*
X185025Y114831D02*
X187733Y106705D01*
X185025Y113670D02*
X187346Y106705D01*
X183090Y109027D02*
X186573D01*
X181542Y106705D02*
X183864D01*
X186186D02*
X188507D01*
X177233Y139977D02*
Y131851D01*
X177620Y139977D02*
Y131851D01*
X176072Y139977D02*
X178781D01*
X176072Y131851D02*
X181876D01*
Y134173D01*
X181489Y131851D01*
X186520Y139977D02*
X183811Y131851D01*
X186520Y139977D02*
X189229Y131851D01*
X186520Y138816D02*
X188842Y131851D01*
X184585Y134173D02*
X188068D01*
X183037Y131851D02*
X185359D01*
X187681D02*
X190003D01*
X25795Y512825D02*
Y506247D01*
X25408Y505086D01*
X24634Y504699D01*
X23860D01*
X23086Y505086D01*
X22699Y505860D01*
Y506634D01*
X23086Y507021D01*
X23473Y506634D01*
X23086Y506247D01*
X25408Y512825D02*
Y506247D01*
X25021Y505086D01*
X24634Y504699D01*
X24247Y512825D02*
X26956D01*
X29045D02*
X28271Y508955D01*
X29045Y509729D01*
X30206Y510116D01*
X31367D01*
X32528Y509729D01*
X33302Y508955D01*
X33689Y507795D01*
Y507021D01*
X33302Y505860D01*
X32528Y505086D01*
X31367Y504699D01*
X30206D01*
X29045Y505086D01*
X28658Y505473D01*
X28271Y506247D01*
Y506634D01*
X28658Y507021D01*
X29045Y506634D01*
X28658Y506247D01*
X31367Y510116D02*
X32141Y509729D01*
X32915Y508955D01*
X33302Y507795D01*
Y507021D01*
X32915Y505860D01*
X32141Y505086D01*
X31367Y504699D01*
X29045Y512825D02*
X32915D01*
X29045Y512438D02*
X30980D01*
X32915Y512825D01*
X297188Y513841D02*
Y507263D01*
X296801Y506102D01*
X296027Y505715D01*
X295253D01*
X294479Y506102D01*
X294092Y506876D01*
Y507650D01*
X294479Y508037D01*
X294866Y507650D01*
X294479Y507263D01*
X296801Y513841D02*
Y507263D01*
X296414Y506102D01*
X296027Y505715D01*
X295640Y513841D02*
X298349D01*
X303534Y513067D02*
Y505715D01*
X305856Y508037D02*
X299664D01*
X303921Y513841D01*
Y505715D01*
X302373D02*
X305082D01*
X117743Y29463D02*
Y22885D01*
X117356Y21724D01*
X116582Y21337D01*
X115808D01*
X115034Y21724D01*
X114647Y22498D01*
Y23272D01*
X115034Y23659D01*
X115421Y23272D01*
X115034Y22885D01*
X117356Y29463D02*
Y22885D01*
X116969Y21724D01*
X116582Y21337D01*
X116195Y29463D02*
X118904D01*
X120606Y27915D02*
X120993Y27528D01*
X120606Y27141D01*
X120219Y27528D01*
Y27915D01*
X120606Y28689D01*
X120993Y29076D01*
X122154Y29463D01*
X123702D01*
X124863Y29076D01*
X125250Y28302D01*
Y27141D01*
X124863Y26367D01*
X123702Y25981D01*
X122541D01*
X123702Y29463D02*
X124476Y29076D01*
X124863Y28302D01*
Y27141D01*
X124476Y26367D01*
X123702Y25981D01*
X124476Y25594D01*
X125250Y24820D01*
X125637Y24046D01*
Y22885D01*
X125250Y22111D01*
X124863Y21724D01*
X123702Y21337D01*
X122154D01*
X120993Y21724D01*
X120606Y22111D01*
X120219Y22885D01*
Y23272D01*
X120606Y23659D01*
X120993Y23272D01*
X120606Y22885D01*
X124863Y25206D02*
X125250Y24046D01*
Y22885D01*
X124863Y22111D01*
X124476Y21724D01*
X123702Y21337D01*
X345073Y25907D02*
Y19329D01*
X344686Y18168D01*
X343912Y17781D01*
X343138D01*
X342364Y18168D01*
X341977Y18942D01*
Y19716D01*
X342364Y20103D01*
X342751Y19716D01*
X342364Y19329D01*
X344686Y25907D02*
Y19329D01*
X344299Y18168D01*
X343912Y17781D01*
X343525Y25907D02*
X346234D01*
X347936Y24359D02*
X348323Y23972D01*
X347936Y23585D01*
X347549Y23972D01*
Y24359D01*
X347936Y25133D01*
X348323Y25520D01*
X349484Y25907D01*
X351032D01*
X352193Y25520D01*
X352580Y25133D01*
X352967Y24359D01*
Y23585D01*
X352580Y22811D01*
X351419Y22037D01*
X349484Y21264D01*
X348710Y20877D01*
X347936Y20103D01*
X347549Y18942D01*
Y17781D01*
X351032Y25907D02*
X351806Y25520D01*
X352193Y25133D01*
X352580Y24359D01*
Y23585D01*
X352193Y22811D01*
X351032Y22037D01*
X349484Y21264D01*
X347549Y18555D02*
X347936Y18942D01*
X348710D01*
X350645Y18168D01*
X351806D01*
X352580Y18555D01*
X352967Y18942D01*
Y19716D01*
X348710Y18942D02*
X350645Y17781D01*
X352193D01*
X352580Y18168D01*
X352967Y18942D01*
X284422Y106196D02*
Y100392D01*
X284809Y99231D01*
X285583Y98457D01*
X286744Y98070D01*
X287518D01*
X288679Y98457D01*
X289453Y99231D01*
X289840Y100392D01*
Y106196D01*
X284809D02*
Y100392D01*
X285196Y99231D01*
X285970Y98457D01*
X286744Y98070D01*
X283261Y106196D02*
X285970D01*
X288679D02*
X291000D01*
X291968Y104648D02*
X292742Y105035D01*
X293903Y106196D01*
Y98070D01*
X293516Y105809D02*
Y98070D01*
X291968D02*
X295451D01*
X243383Y193323D02*
X251509D01*
X243383Y193710D02*
X251509D01*
X243383Y192162D02*
Y196806D01*
X243770Y197967D01*
X244157Y198354D01*
X244931Y198741D01*
X245705D01*
X246479Y198354D01*
X246865Y197967D01*
X247252Y196806D01*
Y193710D01*
X243383Y196806D02*
X243770Y197580D01*
X244157Y197967D01*
X244931Y198354D01*
X245705D01*
X246479Y197967D01*
X246865Y197580D01*
X247252Y196806D01*
X251509Y192162D02*
Y194871D01*
X247252Y195645D02*
X247639Y196419D01*
X248026Y196806D01*
X250735Y197967D01*
X251122Y198354D01*
Y198741D01*
X250735Y199128D01*
X247639Y196419D02*
X248413Y196806D01*
X251122Y197580D01*
X251509Y197967D01*
Y198741D01*
X250735Y199128D01*
X250348D01*
X244931Y200173D02*
X244544Y200946D01*
X243383Y202107D01*
X251509D01*
X243770Y201720D02*
X251509D01*
Y200173D02*
Y203655D01*
X244157Y208918D02*
X251509D01*
X249187Y211240D02*
Y205048D01*
X243383Y209305D01*
X251509D01*
Y207757D02*
Y210466D01*
X222387Y68579D02*
Y60453D01*
X222774Y68579D02*
Y60453D01*
X221226Y68579D02*
X225870D01*
X227031Y68192D01*
X227418Y67805D01*
X227805Y67031D01*
Y66257D01*
X227418Y65483D01*
X227031Y65097D01*
X225870Y64710D01*
X222774D01*
X225870Y68579D02*
X226644Y68192D01*
X227031Y67805D01*
X227418Y67031D01*
Y66257D01*
X227031Y65483D01*
X226644Y65097D01*
X225870Y64710D01*
X221226Y60453D02*
X223935D01*
X224709Y64710D02*
X225483Y64323D01*
X225870Y63936D01*
X227031Y61227D01*
X227418Y60840D01*
X227805D01*
X228192Y61227D01*
X225483Y64323D02*
X225870Y63549D01*
X226644Y60840D01*
X227031Y60453D01*
X227805D01*
X228192Y61227D01*
Y61614D01*
X229236Y67031D02*
X230010Y67418D01*
X231171Y68579D01*
Y60453D01*
X230784Y68192D02*
Y60453D01*
X229236D02*
X232719D01*
X234499Y67031D02*
X234886Y66644D01*
X234499Y66257D01*
X234112Y66644D01*
Y67031D01*
X234499Y67805D01*
X234886Y68192D01*
X236047Y68579D01*
X237595D01*
X238756Y68192D01*
X239143Y67418D01*
Y66257D01*
X238756Y65483D01*
X237595Y65097D01*
X236434D01*
X237595Y68579D02*
X238369Y68192D01*
X238756Y67418D01*
Y66257D01*
X238369Y65483D01*
X237595Y65097D01*
X238369Y64710D01*
X239143Y63936D01*
X239530Y63162D01*
Y62001D01*
X239143Y61227D01*
X238756Y60840D01*
X237595Y60453D01*
X236047D01*
X234886Y60840D01*
X234499Y61227D01*
X234112Y62001D01*
Y62388D01*
X234499Y62775D01*
X234886Y62388D01*
X234499Y62001D01*
X238756Y64323D02*
X239143Y63162D01*
Y62001D01*
X238756Y61227D01*
X238369Y60840D01*
X237595Y60453D01*
X277759Y94233D02*
Y86107D01*
X278146Y94233D02*
Y86107D01*
X276598Y94233D02*
X281242D01*
X282403Y93846D01*
X282790Y93459D01*
X283177Y92685D01*
Y91911D01*
X282790Y91137D01*
X282403Y90751D01*
X281242Y90364D01*
X278146D01*
X281242Y94233D02*
X282016Y93846D01*
X282403Y93459D01*
X282790Y92685D01*
Y91911D01*
X282403Y91137D01*
X282016Y90751D01*
X281242Y90364D01*
X276598Y86107D02*
X279307D01*
X280081Y90364D02*
X280855Y89977D01*
X281242Y89590D01*
X282403Y86881D01*
X282790Y86494D01*
X283177D01*
X283564Y86881D01*
X280855Y89977D02*
X281242Y89203D01*
X282016Y86494D01*
X282403Y86107D01*
X283177D01*
X283564Y86881D01*
Y87268D01*
X284608Y92685D02*
X285382Y93072D01*
X286543Y94233D01*
Y86107D01*
X286156Y93846D02*
Y86107D01*
X284608D02*
X288091D01*
X289871Y92685D02*
X290258Y92298D01*
X289871Y91911D01*
X289484Y92298D01*
Y92685D01*
X289871Y93459D01*
X290258Y93846D01*
X291419Y94233D01*
X292967D01*
X294128Y93846D01*
X294515Y93459D01*
X294902Y92685D01*
Y91911D01*
X294515Y91137D01*
X293354Y90364D01*
X291419Y89590D01*
X290645Y89203D01*
X289871Y88429D01*
X289484Y87268D01*
Y86107D01*
X292967Y94233D02*
X293741Y93846D01*
X294128Y93459D01*
X294515Y92685D01*
Y91911D01*
X294128Y91137D01*
X292967Y90364D01*
X291419Y89590D01*
X289484Y86881D02*
X289871Y87268D01*
X290645D01*
X292580Y86494D01*
X293741D01*
X294515Y86881D01*
X294902Y87268D01*
Y88042D01*
X290645Y87268D02*
X292580Y86107D01*
X294128D01*
X294515Y86494D01*
X294902Y87268D01*
X267297Y81533D02*
Y73407D01*
X267684Y81533D02*
Y73407D01*
X266136Y81533D02*
X270779D01*
X271940Y81146D01*
X272327Y80759D01*
X272714Y79985D01*
Y79211D01*
X272327Y78437D01*
X271940Y78050D01*
X270779Y77663D01*
X267684D01*
X270779Y81533D02*
X271553Y81146D01*
X271940Y80759D01*
X272327Y79985D01*
Y79211D01*
X271940Y78437D01*
X271553Y78050D01*
X270779Y77663D01*
X266136Y73407D02*
X268845D01*
X269618Y77663D02*
X270392Y77277D01*
X270779Y76890D01*
X271940Y74181D01*
X272327Y73794D01*
X272714D01*
X273101Y74181D01*
X270392Y77277D02*
X270779Y76503D01*
X271553Y73794D01*
X271940Y73407D01*
X272714D01*
X273101Y74181D01*
Y74568D01*
X274146Y79985D02*
X274920Y80372D01*
X276081Y81533D01*
Y73407D01*
X275694Y81146D02*
Y73407D01*
X274146D02*
X277629D01*
X279022Y79985D02*
X279796Y80372D01*
X280956Y81533D01*
Y73407D01*
X280569Y81146D02*
Y73407D01*
X279022D02*
X282504D01*
X256083Y193964D02*
X264209D01*
X256083Y194351D02*
X264209D01*
X256083Y192803D02*
Y197447D01*
X256470Y198608D01*
X256857Y198995D01*
X257631Y199382D01*
X258405D01*
X259179Y198995D01*
X259565Y198608D01*
X259952Y197447D01*
Y194351D01*
X256083Y197447D02*
X256470Y198221D01*
X256857Y198608D01*
X257631Y198995D01*
X258405D01*
X259179Y198608D01*
X259565Y198221D01*
X259952Y197447D01*
X264209Y192803D02*
Y195512D01*
X259952Y196286D02*
X260339Y197060D01*
X260726Y197447D01*
X263435Y198608D01*
X263822Y198995D01*
Y199382D01*
X263435Y199769D01*
X260339Y197060D02*
X261113Y197447D01*
X263822Y198221D01*
X264209Y198608D01*
Y199382D01*
X263435Y199769D01*
X263048D01*
X257631Y200813D02*
X257244Y201587D01*
X256083Y202748D01*
X264209D01*
X256470Y202361D02*
X264209D01*
Y200813D02*
Y204296D01*
X256083Y208011D02*
X256470Y206850D01*
X257631Y206076D01*
X259565Y205689D01*
X260726D01*
X262661Y206076D01*
X263822Y206850D01*
X264209Y208011D01*
Y208785D01*
X263822Y209946D01*
X262661Y210720D01*
X260726Y211107D01*
X259565D01*
X257631Y210720D01*
X256470Y209946D01*
X256083Y208785D01*
Y208011D01*
X256470Y207237D01*
X256857Y206850D01*
X257631Y206463D01*
X259565Y206076D01*
X260726D01*
X262661Y206463D01*
X263435Y206850D01*
X263822Y207237D01*
X264209Y208011D01*
Y208785D02*
X263822Y209559D01*
X263435Y209946D01*
X262661Y210333D01*
X260726Y210720D01*
X259565D01*
X257631Y210333D01*
X256857Y209946D01*
X256470Y209559D01*
X256083Y208785D01*
X289391Y164362D02*
Y156236D01*
X289778Y164362D02*
Y156236D01*
X288230Y164362D02*
X292874D01*
X294035Y163975D01*
X294422Y163588D01*
X294809Y162814D01*
Y162040D01*
X294422Y161266D01*
X294035Y160879D01*
X292874Y160492D01*
X289778D01*
X292874Y164362D02*
X293648Y163975D01*
X294035Y163588D01*
X294422Y162814D01*
Y162040D01*
X294035Y161266D01*
X293648Y160879D01*
X292874Y160492D01*
X288230Y156236D02*
X290939D01*
X291713Y160492D02*
X292487Y160105D01*
X292874Y159719D01*
X294035Y157010D01*
X294422Y156623D01*
X294809D01*
X295195Y157010D01*
X292487Y160105D02*
X292874Y159332D01*
X293648Y156623D01*
X294035Y156236D01*
X294809D01*
X295195Y157010D01*
Y157397D01*
X301271Y161653D02*
X300884Y160492D01*
X300110Y159719D01*
X298949Y159332D01*
X298562D01*
X297401Y159719D01*
X296627Y160492D01*
X296240Y161653D01*
Y162040D01*
X296627Y163201D01*
X297401Y163975D01*
X298562Y164362D01*
X299336D01*
X300497Y163975D01*
X301271Y163201D01*
X301658Y162040D01*
Y159719D01*
X301271Y158171D01*
X300884Y157397D01*
X300110Y156623D01*
X298949Y156236D01*
X297788D01*
X297014Y156623D01*
X296627Y157397D01*
Y157784D01*
X297014Y158171D01*
X297401Y157784D01*
X297014Y157397D01*
X298562Y159332D02*
X297788Y159719D01*
X297014Y160492D01*
X296627Y161653D01*
Y162040D01*
X297014Y163201D01*
X297788Y163975D01*
X298562Y164362D01*
X299336D02*
X300110Y163975D01*
X300884Y163201D01*
X301271Y162040D01*
Y159719D01*
X300884Y158171D01*
X300497Y157397D01*
X299723Y156623D01*
X298949Y156236D01*
X231141Y193583D02*
X239267D01*
X231141Y193970D02*
X239267D01*
X231141Y192422D02*
Y197066D01*
X231528Y198227D01*
X231915Y198614D01*
X232689Y199001D01*
X233463D01*
X234237Y198614D01*
X234624Y198227D01*
X235011Y197066D01*
Y193970D01*
X231141Y197066D02*
X231528Y197840D01*
X231915Y198227D01*
X232689Y198614D01*
X233463D01*
X234237Y198227D01*
X234624Y197840D01*
X235011Y197066D01*
X239267Y192422D02*
Y195131D01*
X235011Y195905D02*
X235397Y196679D01*
X235784Y197066D01*
X238493Y198227D01*
X238880Y198614D01*
Y199001D01*
X238493Y199387D01*
X235397Y196679D02*
X236171Y197066D01*
X238880Y197840D01*
X239267Y198227D01*
Y199001D01*
X238493Y199387D01*
X238106D01*
X231141Y202367D02*
X231528Y201206D01*
X232302Y200819D01*
X233463D01*
X234237Y201206D01*
X234624Y202367D01*
Y203915D01*
X234237Y205076D01*
X233463Y205463D01*
X232302D01*
X231528Y205076D01*
X231141Y203915D01*
Y202367D01*
X231528Y201593D01*
X232302Y201206D01*
X233463D01*
X234237Y201593D01*
X234624Y202367D01*
Y203915D02*
X234237Y204689D01*
X233463Y205076D01*
X232302D01*
X231528Y204689D01*
X231141Y203915D01*
X234624Y202367D02*
X235011Y201206D01*
X235397Y200819D01*
X236171Y200432D01*
X237719D01*
X238493Y200819D01*
X238880Y201206D01*
X239267Y202367D01*
Y203915D01*
X238880Y205076D01*
X238493Y205463D01*
X237719Y205850D01*
X236171D01*
X235397Y205463D01*
X235011Y205076D01*
X234624Y203915D01*
Y202367D02*
X235011Y201593D01*
X235397Y201206D01*
X236171Y200819D01*
X237719D01*
X238493Y201206D01*
X238880Y201593D01*
X239267Y202367D01*
Y203915D02*
X238880Y204689D01*
X238493Y205076D01*
X237719Y205463D01*
X236171D01*
X235397Y205076D01*
X235011Y204689D01*
X234624Y203915D01*
X219237Y183133D02*
Y175007D01*
X219624Y183133D02*
Y175007D01*
X218076Y183133D02*
X222720D01*
X223881Y182746D01*
X224268Y182359D01*
X224655Y181585D01*
Y180811D01*
X224268Y180037D01*
X223881Y179650D01*
X222720Y179263D01*
X219624D01*
X222720Y183133D02*
X223494Y182746D01*
X223881Y182359D01*
X224268Y181585D01*
Y180811D01*
X223881Y180037D01*
X223494Y179650D01*
X222720Y179263D01*
X218076Y175007D02*
X220785D01*
X221559Y179263D02*
X222333Y178876D01*
X222720Y178490D01*
X223881Y175781D01*
X224268Y175394D01*
X224655D01*
X225042Y175781D01*
X222333Y178876D02*
X222720Y178103D01*
X223494Y175394D01*
X223881Y175007D01*
X224655D01*
X225042Y175781D01*
Y176168D01*
X226086Y183133D02*
Y180811D01*
Y181585D02*
X226473Y182359D01*
X227247Y183133D01*
X228021D01*
X229956Y181972D01*
X230730D01*
X231117Y182359D01*
X231504Y183133D01*
X226473Y182359D02*
X227247Y182746D01*
X228021D01*
X229956Y181972D01*
X231504Y183133D02*
Y181972D01*
X231117Y180811D01*
X229569Y178876D01*
X229182Y178103D01*
X228795Y176942D01*
Y175007D01*
X231117Y180811D02*
X229182Y178876D01*
X228795Y178103D01*
X228408Y176942D01*
Y175007D01*
X207299Y171703D02*
Y163577D01*
X207686Y171703D02*
Y163577D01*
X206138Y171703D02*
X210782D01*
X211943Y171316D01*
X212330Y170929D01*
X212717Y170155D01*
Y169381D01*
X212330Y168607D01*
X211943Y168221D01*
X210782Y167833D01*
X207686D01*
X210782Y171703D02*
X211556Y171316D01*
X211943Y170929D01*
X212330Y170155D01*
Y169381D01*
X211943Y168607D01*
X211556Y168221D01*
X210782Y167833D01*
X206138Y163577D02*
X208847D01*
X209621Y167833D02*
X210395Y167446D01*
X210782Y167060D01*
X211943Y164351D01*
X212330Y163964D01*
X212717D01*
X213104Y164351D01*
X210395Y167446D02*
X210782Y166673D01*
X211556Y163964D01*
X211943Y163577D01*
X212717D01*
X213104Y164351D01*
Y164738D01*
X218792Y170542D02*
X218405Y170155D01*
X218792Y169768D01*
X219179Y170155D01*
Y170542D01*
X218792Y171316D01*
X218018Y171703D01*
X216857D01*
X215696Y171316D01*
X214922Y170542D01*
X214535Y169768D01*
X214148Y168221D01*
Y165899D01*
X214535Y164738D01*
X215309Y163964D01*
X216470Y163577D01*
X217244D01*
X218405Y163964D01*
X219179Y164738D01*
X219566Y165899D01*
Y166286D01*
X219179Y167446D01*
X218405Y168221D01*
X217244Y168607D01*
X216857D01*
X215696Y168221D01*
X214922Y167446D01*
X214535Y166286D01*
X216857Y171703D02*
X216083Y171316D01*
X215309Y170542D01*
X214922Y169768D01*
X214535Y168221D01*
Y165899D01*
X214922Y164738D01*
X215696Y163964D01*
X216470Y163577D01*
X217244D02*
X218018Y163964D01*
X218792Y164738D01*
X219179Y165899D01*
Y166286D01*
X218792Y167446D01*
X218018Y168221D01*
X217244Y168607D01*
X221523Y81279D02*
Y73153D01*
X221910Y81279D02*
Y73153D01*
X220362Y81279D02*
X225006D01*
X226167Y80892D01*
X226554Y80505D01*
X226941Y79731D01*
Y78957D01*
X226554Y78183D01*
X226167Y77797D01*
X225006Y77410D01*
X221910D01*
X225006Y81279D02*
X225780Y80892D01*
X226167Y80505D01*
X226554Y79731D01*
Y78957D01*
X226167Y78183D01*
X225780Y77797D01*
X225006Y77410D01*
X220362Y73153D02*
X223071D01*
X223845Y77410D02*
X224619Y77023D01*
X225006Y76636D01*
X226167Y73927D01*
X226554Y73540D01*
X226941D01*
X227327Y73927D01*
X224619Y77023D02*
X225006Y76249D01*
X225780Y73540D01*
X226167Y73153D01*
X226941D01*
X227327Y73927D01*
Y74314D01*
X229146Y81279D02*
X228372Y77410D01*
X229146Y78183D01*
X230307Y78570D01*
X231468D01*
X232629Y78183D01*
X233403Y77410D01*
X233790Y76249D01*
Y75475D01*
X233403Y74314D01*
X232629Y73540D01*
X231468Y73153D01*
X230307D01*
X229146Y73540D01*
X228759Y73927D01*
X228372Y74701D01*
Y75088D01*
X228759Y75475D01*
X229146Y75088D01*
X228759Y74701D01*
X231468Y78570D02*
X232242Y78183D01*
X233016Y77410D01*
X233403Y76249D01*
Y75475D01*
X233016Y74314D01*
X232242Y73540D01*
X231468Y73153D01*
X229146Y81279D02*
X233016D01*
X229146Y80892D02*
X231081D01*
X233016Y81279D01*
X146256Y127786D02*
Y119660D01*
X146643Y127786D02*
Y119660D01*
X145095Y127786D02*
X149739D01*
X150900Y127399D01*
X151286Y127012D01*
X151673Y126238D01*
Y125464D01*
X151286Y124690D01*
X150900Y124304D01*
X149739Y123917D01*
X146643D01*
X149739Y127786D02*
X150513Y127399D01*
X150900Y127012D01*
X151286Y126238D01*
Y125464D01*
X150900Y124690D01*
X150513Y124304D01*
X149739Y123917D01*
X145095Y119660D02*
X147804D01*
X148578Y123917D02*
X149352Y123530D01*
X149739Y123143D01*
X150900Y120434D01*
X151286Y120047D01*
X151673D01*
X152060Y120434D01*
X149352Y123530D02*
X149739Y122756D01*
X150513Y120047D01*
X150900Y119660D01*
X151673D01*
X152060Y120434D01*
Y120821D01*
X156975Y127012D02*
Y119660D01*
X159297Y121982D02*
X153105D01*
X157362Y127786D01*
Y119660D01*
X155814D02*
X158523D01*
X145881Y140740D02*
Y132614D01*
X146268Y140740D02*
Y132614D01*
X144720Y140740D02*
X149364D01*
X150525Y140353D01*
X150912Y139966D01*
X151299Y139192D01*
Y138418D01*
X150912Y137644D01*
X150525Y137257D01*
X149364Y136870D01*
X146268D01*
X149364Y140740D02*
X150138Y140353D01*
X150525Y139966D01*
X150912Y139192D01*
Y138418D01*
X150525Y137644D01*
X150138Y137257D01*
X149364Y136870D01*
X144720Y132614D02*
X147429D01*
X148203Y136870D02*
X148977Y136483D01*
X149364Y136097D01*
X150525Y133388D01*
X150912Y133001D01*
X151299D01*
X151685Y133388D01*
X148977Y136483D02*
X149364Y135710D01*
X150138Y133001D01*
X150525Y132614D01*
X151299D01*
X151685Y133388D01*
Y133775D01*
X153117Y139192D02*
X153504Y138805D01*
X153117Y138418D01*
X152730Y138805D01*
Y139192D01*
X153117Y139966D01*
X153504Y140353D01*
X154665Y140740D01*
X156213D01*
X157374Y140353D01*
X157761Y139579D01*
Y138418D01*
X157374Y137644D01*
X156213Y137257D01*
X155052D01*
X156213Y140740D02*
X156987Y140353D01*
X157374Y139579D01*
Y138418D01*
X156987Y137644D01*
X156213Y137257D01*
X156987Y136870D01*
X157761Y136097D01*
X158148Y135323D01*
Y134162D01*
X157761Y133388D01*
X157374Y133001D01*
X156213Y132614D01*
X154665D01*
X153504Y133001D01*
X153117Y133388D01*
X152730Y134162D01*
Y134549D01*
X153117Y134936D01*
X153504Y134549D01*
X153117Y134162D01*
X157374Y136483D02*
X157761Y135323D01*
Y134162D01*
X157374Y133388D01*
X156987Y133001D01*
X156213Y132614D01*
X131623Y116900D02*
X139749D01*
X131623Y117287D02*
X139749D01*
X131623Y115739D02*
Y120383D01*
X132010Y121544D01*
X132397Y121931D01*
X133171Y122318D01*
X133945D01*
X134719Y121931D01*
X135105Y121544D01*
X135492Y120383D01*
Y117287D01*
X131623Y120383D02*
X132010Y121157D01*
X132397Y121544D01*
X133171Y121931D01*
X133945D01*
X134719Y121544D01*
X135105Y121157D01*
X135492Y120383D01*
X139749Y115739D02*
Y118448D01*
X135492Y119222D02*
X135879Y119996D01*
X136266Y120383D01*
X138975Y121544D01*
X139362Y121931D01*
Y122318D01*
X138975Y122704D01*
X135879Y119996D02*
X136653Y120383D01*
X139362Y121157D01*
X139749Y121544D01*
Y122318D01*
X138975Y122704D01*
X138588D01*
X133171Y124136D02*
X133558Y124523D01*
X133945Y124136D01*
X133558Y123749D01*
X133171D01*
X132397Y124136D01*
X132010Y124523D01*
X131623Y125684D01*
Y127232D01*
X132010Y128393D01*
X132397Y128780D01*
X133171Y129167D01*
X133945D01*
X134719Y128780D01*
X135492Y127619D01*
X136266Y125684D01*
X136653Y124910D01*
X137427Y124136D01*
X138588Y123749D01*
X139749D01*
X131623Y127232D02*
X132010Y128006D01*
X132397Y128393D01*
X133171Y128780D01*
X133945D01*
X134719Y128393D01*
X135492Y127232D01*
X136266Y125684D01*
X138975Y123749D02*
X138588Y124136D01*
Y124910D01*
X139362Y126845D01*
Y128006D01*
X138975Y128780D01*
X138588Y129167D01*
X137814D01*
X138588Y124910D02*
X139749Y126845D01*
Y128393D01*
X139362Y128780D01*
X138588Y129167D01*
X132131Y136664D02*
X140257D01*
X132131Y137050D02*
X140257D01*
X132131Y135503D02*
Y140146D01*
X132518Y141307D01*
X132905Y141694D01*
X133679Y142081D01*
X134453D01*
X135226Y141694D01*
X135613Y141307D01*
X136000Y140146D01*
Y137050D01*
X132131Y140146D02*
X132518Y140920D01*
X132905Y141307D01*
X133679Y141694D01*
X134453D01*
X135226Y141307D01*
X135613Y140920D01*
X136000Y140146D01*
X140257Y135503D02*
Y138211D01*
X136000Y138985D02*
X136387Y139759D01*
X136774Y140146D01*
X139483Y141307D01*
X139870Y141694D01*
Y142081D01*
X139483Y142468D01*
X136387Y139759D02*
X137161Y140146D01*
X139870Y140920D01*
X140257Y141307D01*
Y142081D01*
X139483Y142468D01*
X139096D01*
X133679Y143513D02*
X133292Y144287D01*
X132131Y145448D01*
X140257D01*
X132518Y145061D02*
X140257D01*
Y143513D02*
Y146995D01*
X90058Y172998D02*
Y166420D01*
X89671Y165259D01*
X88897Y164872D01*
X88123D01*
X87349Y165259D01*
X86962Y166033D01*
Y166807D01*
X87349Y167194D01*
X87736Y166807D01*
X87349Y166420D01*
X89671Y172998D02*
Y166420D01*
X89284Y165259D01*
X88897Y164872D01*
X88510Y172998D02*
X91219D01*
X92535Y171450D02*
X93309Y171837D01*
X94470Y172998D01*
Y164872D01*
X94083Y172611D02*
Y164872D01*
X92535D02*
X96017D01*
X232398Y92564D02*
X232785Y91403D01*
Y93725D01*
X232398Y92564D01*
X231624Y93338D01*
X230463Y93725D01*
X229689D01*
X228528Y93338D01*
X227754Y92564D01*
X227367Y91790D01*
X226981Y90629D01*
Y88695D01*
X227367Y87534D01*
X227754Y86760D01*
X228528Y85986D01*
X229689Y85599D01*
X230463D01*
X231624Y85986D01*
X232398Y86760D01*
X232785Y87534D01*
X229689Y93725D02*
X228915Y93338D01*
X228141Y92564D01*
X227754Y91790D01*
X227367Y90629D01*
Y88695D01*
X227754Y87534D01*
X228141Y86760D01*
X228915Y85986D01*
X229689Y85599D01*
X238589Y92564D02*
X238202Y92177D01*
X238589Y91790D01*
X238976Y92177D01*
Y92564D01*
X238589Y93338D01*
X237816Y93725D01*
X236655D01*
X235494Y93338D01*
X234720Y92564D01*
X234333Y91790D01*
X233946Y90243D01*
Y87921D01*
X234333Y86760D01*
X235107Y85986D01*
X236268Y85599D01*
X237042D01*
X238202Y85986D01*
X238976Y86760D01*
X239363Y87921D01*
Y88308D01*
X238976Y89468D01*
X238202Y90243D01*
X237042Y90629D01*
X236655D01*
X235494Y90243D01*
X234720Y89468D01*
X234333Y88308D01*
X236655Y93725D02*
X235881Y93338D01*
X235107Y92564D01*
X234720Y91790D01*
X234333Y90243D01*
Y87921D01*
X234720Y86760D01*
X235494Y85986D01*
X236268Y85599D01*
X237042D02*
X237816Y85986D01*
X238589Y86760D01*
X238976Y87921D01*
Y88308D01*
X238589Y89468D01*
X237816Y90243D01*
X237042Y90629D01*
X268928Y200165D02*
X270089Y200552D01*
X267767D01*
X268928Y200165D01*
X268154Y199391D01*
X267767Y198230D01*
Y197456D01*
X268154Y196295D01*
X268928Y195522D01*
X269702Y195135D01*
X270863Y194748D01*
X272797D01*
X273958Y195135D01*
X274732Y195522D01*
X275506Y196295D01*
X275893Y197456D01*
Y198230D01*
X275506Y199391D01*
X274732Y200165D01*
X273958Y200552D01*
X267767Y197456D02*
X268154Y196682D01*
X268928Y195908D01*
X269702Y195522D01*
X270863Y195135D01*
X272797D01*
X273958Y195522D01*
X274732Y195908D01*
X275506Y196682D01*
X275893Y197456D01*
X267767Y202487D02*
X271636Y201713D01*
X270863Y202487D01*
X270476Y203648D01*
Y204809D01*
X270863Y205970D01*
X271636Y206744D01*
X272797Y207130D01*
X273571D01*
X274732Y206744D01*
X275506Y205970D01*
X275893Y204809D01*
Y203648D01*
X275506Y202487D01*
X275119Y202100D01*
X274345Y201713D01*
X273958D01*
X273571Y202100D01*
X273958Y202487D01*
X274345Y202100D01*
X270476Y204809D02*
X270863Y205583D01*
X271636Y206357D01*
X272797Y206744D01*
X273571D01*
X274732Y206357D01*
X275506Y205583D01*
X275893Y204809D01*
X267767Y202487D02*
Y206357D01*
X268154Y202487D02*
Y204422D01*
X267767Y206357D01*
X301657Y131451D02*
X302044Y130290D01*
Y132612D01*
X301657Y131451D01*
X300883Y132225D01*
X299722Y132612D01*
X298948D01*
X297787Y132225D01*
X297013Y131451D01*
X296626Y130677D01*
X296239Y129516D01*
Y127582D01*
X296626Y126421D01*
X297013Y125647D01*
X297787Y124873D01*
X298948Y124486D01*
X299722D01*
X300883Y124873D01*
X301657Y125647D01*
X302044Y126421D01*
X298948Y132612D02*
X298174Y132225D01*
X297400Y131451D01*
X297013Y130677D01*
X296626Y129516D01*
Y127582D01*
X297013Y126421D01*
X297400Y125647D01*
X298174Y124873D01*
X298948Y124486D01*
X307075Y131838D02*
Y124486D01*
X309396Y126808D02*
X303205D01*
X307461Y132612D01*
Y124486D01*
X305914D02*
X308622D01*
X300724Y74530D02*
X301111Y73369D01*
Y75691D01*
X300724Y74530D01*
X299950Y75304D01*
X298789Y75691D01*
X298015D01*
X296854Y75304D01*
X296080Y74530D01*
X295693Y73756D01*
X295307Y72595D01*
Y70661D01*
X295693Y69500D01*
X296080Y68726D01*
X296854Y67952D01*
X298015Y67565D01*
X298789D01*
X299950Y67952D01*
X300724Y68726D01*
X301111Y69500D01*
X298015Y75691D02*
X297241Y75304D01*
X296467Y74530D01*
X296080Y73756D01*
X295693Y72595D01*
Y70661D01*
X296080Y69500D01*
X296467Y68726D01*
X297241Y67952D01*
X298015Y67565D01*
X302659Y74143D02*
X303046Y73756D01*
X302659Y73369D01*
X302272Y73756D01*
Y74143D01*
X302659Y74917D01*
X303046Y75304D01*
X304207Y75691D01*
X305755D01*
X306915Y75304D01*
X307302Y74530D01*
Y73369D01*
X306915Y72595D01*
X305755Y72208D01*
X304594D01*
X305755Y75691D02*
X306528Y75304D01*
X306915Y74530D01*
Y73369D01*
X306528Y72595D01*
X305755Y72208D01*
X306528Y71821D01*
X307302Y71048D01*
X307689Y70274D01*
Y69113D01*
X307302Y68339D01*
X306915Y67952D01*
X305755Y67565D01*
X304207D01*
X303046Y67952D01*
X302659Y68339D01*
X302272Y69113D01*
Y69500D01*
X302659Y69887D01*
X303046Y69500D01*
X302659Y69113D01*
X306915Y71434D02*
X307302Y70274D01*
Y69113D01*
X306915Y68339D01*
X306528Y67952D01*
X305755Y67565D01*
X214364Y142856D02*
X214751Y141695D01*
Y144017D01*
X214364Y142856D01*
X213590Y143630D01*
X212429Y144017D01*
X211655D01*
X210494Y143630D01*
X209720Y142856D01*
X209333Y142082D01*
X208947Y140921D01*
Y138987D01*
X209333Y137826D01*
X209720Y137052D01*
X210494Y136278D01*
X211655Y135891D01*
X212429D01*
X213590Y136278D01*
X214364Y137052D01*
X214751Y137826D01*
X211655Y144017D02*
X210881Y143630D01*
X210107Y142856D01*
X209720Y142082D01*
X209333Y140921D01*
Y138987D01*
X209720Y137826D01*
X210107Y137052D01*
X210881Y136278D01*
X211655Y135891D01*
X216299Y142469D02*
X216686Y142082D01*
X216299Y141695D01*
X215912Y142082D01*
Y142469D01*
X216299Y143243D01*
X216686Y143630D01*
X217847Y144017D01*
X219395D01*
X220555Y143630D01*
X220942Y143243D01*
X221329Y142469D01*
Y141695D01*
X220942Y140921D01*
X219782Y140147D01*
X217847Y139374D01*
X217073Y138987D01*
X216299Y138213D01*
X215912Y137052D01*
Y135891D01*
X219395Y144017D02*
X220168Y143630D01*
X220555Y143243D01*
X220942Y142469D01*
Y141695D01*
X220555Y140921D01*
X219395Y140147D01*
X217847Y139374D01*
X215912Y136665D02*
X216299Y137052D01*
X217073D01*
X219008Y136278D01*
X220168D01*
X220942Y136665D01*
X221329Y137052D01*
Y137826D01*
X217073Y137052D02*
X219008Y135891D01*
X220555D01*
X220942Y136278D01*
X221329Y137052D01*
X214111Y106559D02*
X214498Y105398D01*
Y107720D01*
X214111Y106559D01*
X213337Y107333D01*
X212177Y107720D01*
X211403D01*
X210242Y107333D01*
X209468Y106559D01*
X209081Y105785D01*
X208694Y104624D01*
Y102690D01*
X209081Y101529D01*
X209468Y100755D01*
X210242Y99981D01*
X211403Y99594D01*
X212177D01*
X213337Y99981D01*
X214111Y100755D01*
X214498Y101529D01*
X211403Y107720D02*
X210629Y107333D01*
X209855Y106559D01*
X209468Y105785D01*
X209081Y104624D01*
Y102690D01*
X209468Y101529D01*
X209855Y100755D01*
X210629Y99981D01*
X211403Y99594D01*
X215659Y106172D02*
X216433Y106559D01*
X217594Y107720D01*
Y99594D01*
X217207Y107333D02*
Y99594D01*
X215659D02*
X219142D01*
M02*
