G04*
G04 #@! TF.GenerationSoftware,Altium Limited,Altium Designer,26.1.1 (7)*
G04*
G04 Layer_Color=8388736*
%FSLAX44Y44*%
%MOMM*%
G71*
G04*
G04 #@! TF.SameCoordinates,8D6EEAA2-4152-4A29-9E96-F584E3A43220*
G04*
G04*
G04 #@! TF.FilePolarity,Negative*
G04*
G01*
G75*
%ADD15R,0.8000X0.2750*%
%ADD16R,0.2750X0.8000*%
%ADD17R,2.6500X2.6500*%
%ADD18C,1.0000*%
G04:AMPARAMS|DCode=19|XSize=0.7mm|YSize=0.65mm|CornerRadius=0.1375mm|HoleSize=0mm|Usage=FLASHONLY|Rotation=90.000|XOffset=0mm|YOffset=0mm|HoleType=Round|Shape=RoundedRectangle|*
%AMROUNDEDRECTD19*
21,1,0.7000,0.3750,0,0,90.0*
21,1,0.4250,0.6500,0,0,90.0*
1,1,0.2750,0.1875,0.2125*
1,1,0.2750,0.1875,-0.2125*
1,1,0.2750,-0.1875,-0.2125*
1,1,0.2750,-0.1875,0.2125*
%
%ADD19ROUNDEDRECTD19*%
G04:AMPARAMS|DCode=20|XSize=0.7mm|YSize=0.65mm|CornerRadius=0.1375mm|HoleSize=0mm|Usage=FLASHONLY|Rotation=0.000|XOffset=0mm|YOffset=0mm|HoleType=Round|Shape=RoundedRectangle|*
%AMROUNDEDRECTD20*
21,1,0.7000,0.3750,0,0,0.0*
21,1,0.4250,0.6500,0,0,0.0*
1,1,0.2750,0.2125,-0.1875*
1,1,0.2750,-0.2125,-0.1875*
1,1,0.2750,-0.2125,0.1875*
1,1,0.2750,0.2125,0.1875*
%
%ADD20ROUNDEDRECTD20*%
%ADD21O,2.0066X1.4986*%
%ADD22C,0.9906*%
%ADD23C,1.6740*%
%ADD24R,1.6740X1.6740*%
%ADD25C,0.7596*%
D15*
X236582Y129659D02*
D03*
Y124659D02*
D03*
Y119659D02*
D03*
Y114659D02*
D03*
Y109659D02*
D03*
X275582D02*
D03*
Y114659D02*
D03*
Y124659D02*
D03*
Y129659D02*
D03*
Y119659D02*
D03*
D16*
X246082Y100159D02*
D03*
X251082D02*
D03*
X256082D02*
D03*
X261082D02*
D03*
X266082D02*
D03*
X246082Y139159D02*
D03*
X256082D02*
D03*
X266082D02*
D03*
X251082D02*
D03*
X261082D02*
D03*
D17*
X256082Y119659D02*
D03*
D18*
X393112Y69850D02*
G03*
X393112Y69850I-5000J0D01*
G01*
X387778Y460502D02*
G03*
X387778Y460502I-5000J0D01*
G01*
X44116Y193802D02*
G03*
X44116Y193802I-5000J0D01*
G01*
D19*
X254558Y57937D02*
D03*
X263558D02*
D03*
X244782Y87495D02*
D03*
X253782D02*
D03*
X215696Y82321D02*
D03*
X206696D02*
D03*
X237612Y182143D02*
D03*
X246612D02*
D03*
X224332Y127025D02*
D03*
X215332D02*
D03*
X224318Y117213D02*
D03*
X215318D02*
D03*
X272252Y87495D02*
D03*
X263252D02*
D03*
X254434Y67683D02*
D03*
X263434D02*
D03*
X254108Y77589D02*
D03*
X263108D02*
D03*
D20*
X244652Y78185D02*
D03*
Y69185D02*
D03*
X283006Y161679D02*
D03*
Y152679D02*
D03*
X290880Y130763D02*
D03*
Y121763D02*
D03*
X267855Y158811D02*
D03*
Y167811D02*
D03*
X257606Y158775D02*
D03*
Y167775D02*
D03*
X247446Y158521D02*
D03*
Y167521D02*
D03*
X227126Y167267D02*
D03*
Y158267D02*
D03*
Y148797D02*
D03*
Y139797D02*
D03*
X205790Y126843D02*
D03*
Y135843D02*
D03*
X237286Y167339D02*
D03*
Y158339D02*
D03*
X205790Y117555D02*
D03*
Y108555D02*
D03*
X224074Y106959D02*
D03*
Y97959D02*
D03*
D21*
X133944Y107706D02*
D03*
X186944Y150208D02*
D03*
Y95208D02*
D03*
D22*
X167944Y122707D02*
D03*
X92944D02*
D03*
D23*
X215900Y25400D02*
D03*
X342900Y508000D02*
D03*
X124460D02*
D03*
X292100Y25400D02*
D03*
X266700D02*
D03*
X444500D02*
D03*
X469900D02*
D03*
X419100D02*
D03*
X393700D02*
D03*
X495300D02*
D03*
X190500D02*
D03*
X241300D02*
D03*
X165100D02*
D03*
X317500D02*
D03*
X393700Y508000D02*
D03*
X368300D02*
D03*
X419100D02*
D03*
X444500D02*
D03*
X469900D02*
D03*
X495300D02*
D03*
X149860D02*
D03*
X99060D02*
D03*
X73660D02*
D03*
X175260D02*
D03*
X200660D02*
D03*
X226060D02*
D03*
X251460D02*
D03*
X276860D02*
D03*
D24*
X368300Y25400D02*
D03*
X317500Y508000D02*
D03*
X139700Y25400D02*
D03*
X48260Y508000D02*
D03*
D25*
X266700Y39370D02*
D03*
X331343Y493903D02*
D03*
X331470Y120396D02*
D03*
X292100Y39370D02*
D03*
X210870Y69875D02*
D03*
X210616Y92227D02*
D03*
X218490Y150139D02*
D03*
X262474Y150393D02*
D03*
X299008Y109753D02*
D03*
X331266Y109499D02*
D03*
X287832Y67589D02*
D03*
X271195Y49428D02*
D03*
X271576Y67335D02*
D03*
X291134Y141757D02*
D03*
X124714Y492760D02*
D03*
X276148Y167919D02*
D03*
X283514Y141757D02*
D03*
X269544Y146329D02*
D03*
X298246Y118897D02*
D03*
X318566D02*
D03*
X287832Y75675D02*
D03*
X245668Y59969D02*
D03*
M02*
