G04*
G04 #@! TF.GenerationSoftware,Altium Limited,Altium Designer,26.1.1 (7)*
G04*
G04 Layer_Color=8421504*
%FSLAX44Y44*%
%MOMM*%
G71*
G04*
G04 #@! TF.SameCoordinates,8D6EEAA2-4152-4A29-9E96-F584E3A43220*
G04*
G04*
G04 #@! TF.FilePolarity,Positive*
G04*
G01*
G75*
G04:AMPARAMS|DCode=12|XSize=0.55mm|YSize=0.5mm|CornerRadius=0.0625mm|HoleSize=0mm|Usage=FLASHONLY|Rotation=90.000|XOffset=0mm|YOffset=0mm|HoleType=Round|Shape=RoundedRectangle|*
%AMROUNDEDRECTD12*
21,1,0.5500,0.3750,0,0,90.0*
21,1,0.4250,0.5000,0,0,90.0*
1,1,0.1250,0.1875,0.2125*
1,1,0.1250,0.1875,-0.2125*
1,1,0.1250,-0.1875,-0.2125*
1,1,0.1250,-0.1875,0.2125*
%
%ADD12ROUNDEDRECTD12*%
%ADD13C,1.0000*%
G04:AMPARAMS|DCode=14|XSize=0.55mm|YSize=0.5mm|CornerRadius=0.0625mm|HoleSize=0mm|Usage=FLASHONLY|Rotation=0.000|XOffset=0mm|YOffset=0mm|HoleType=Round|Shape=RoundedRectangle|*
%AMROUNDEDRECTD14*
21,1,0.5500,0.3750,0,0,0.0*
21,1,0.4250,0.5000,0,0,0.0*
1,1,0.1250,0.2125,-0.1875*
1,1,0.1250,-0.2125,-0.1875*
1,1,0.1250,-0.2125,0.1875*
1,1,0.1250,0.2125,0.1875*
%
%ADD14ROUNDEDRECTD14*%
%ADD15R,0.8000X0.2750*%
%ADD16R,0.2750X0.8000*%
%ADD17R,2.6500X2.6500*%
G36*
X243832Y118659D02*
Y107409D01*
X255082D01*
Y118659D01*
X243832D01*
D02*
G37*
G36*
Y131909D02*
Y120659D01*
X255082D01*
Y131909D01*
X243832D01*
D02*
G37*
G36*
X257082Y118659D02*
Y107409D01*
X268332D01*
Y118659D01*
X257082D01*
D02*
G37*
G36*
Y131909D02*
Y120659D01*
X268332D01*
Y131909D01*
X257082D01*
D02*
G37*
D12*
X254558Y57937D02*
D03*
X263558D02*
D03*
X244782Y87495D02*
D03*
X253782D02*
D03*
X215696Y82321D02*
D03*
X206696D02*
D03*
X237612Y182143D02*
D03*
X246612D02*
D03*
X224332Y127025D02*
D03*
X215332D02*
D03*
X224318Y117213D02*
D03*
X215318D02*
D03*
X272252Y87495D02*
D03*
X263252D02*
D03*
X254434Y67683D02*
D03*
X263434D02*
D03*
X254108Y77589D02*
D03*
X263108D02*
D03*
D13*
X388112Y69850D02*
D03*
X382778Y460502D02*
D03*
X39116Y193802D02*
D03*
D14*
X244652Y78185D02*
D03*
Y69185D02*
D03*
X283006Y161679D02*
D03*
Y152679D02*
D03*
X290880Y130763D02*
D03*
Y121763D02*
D03*
X267855Y158811D02*
D03*
Y167811D02*
D03*
X257606Y158775D02*
D03*
Y167775D02*
D03*
X247446Y158521D02*
D03*
Y167521D02*
D03*
X227126Y167267D02*
D03*
Y158267D02*
D03*
Y148797D02*
D03*
Y139797D02*
D03*
X205790Y126843D02*
D03*
Y135843D02*
D03*
X237286Y167339D02*
D03*
Y158339D02*
D03*
X205790Y117555D02*
D03*
Y108555D02*
D03*
X224074Y106959D02*
D03*
Y97959D02*
D03*
D15*
X236582Y129659D02*
D03*
Y124659D02*
D03*
Y119659D02*
D03*
Y114659D02*
D03*
Y109659D02*
D03*
X275582D02*
D03*
Y114659D02*
D03*
Y124659D02*
D03*
Y129659D02*
D03*
Y119659D02*
D03*
D16*
X246082Y100159D02*
D03*
X251082D02*
D03*
X256082D02*
D03*
X261082D02*
D03*
X266082D02*
D03*
X246082Y139159D02*
D03*
X256082D02*
D03*
X266082D02*
D03*
X251082D02*
D03*
X261082D02*
D03*
D17*
X256082Y119659D02*
D03*
M02*
