G04*
G04 #@! TF.GenerationSoftware,Altium Limited,Altium Designer,26.1.1 (7)*
G04*
G04 Layer_Physical_Order=1*
G04 Layer_Color=255*
%FSLAX44Y44*%
%MOMM*%
G71*
G04*
G04 #@! TF.SameCoordinates,8D6EEAA2-4152-4A29-9E96-F584E3A43220*
G04*
G04*
G04 #@! TF.FilePolarity,Positive*
G04*
G01*
G75*
G04:AMPARAMS|DCode=12|XSize=0.55mm|YSize=0.5mm|CornerRadius=0.0625mm|HoleSize=0mm|Usage=FLASHONLY|Rotation=90.000|XOffset=0mm|YOffset=0mm|HoleType=Round|Shape=RoundedRectangle|*
%AMROUNDEDRECTD12*
21,1,0.5500,0.3750,0,0,90.0*
21,1,0.4250,0.5000,0,0,90.0*
1,1,0.1250,0.1875,0.2125*
1,1,0.1250,0.1875,-0.2125*
1,1,0.1250,-0.1875,-0.2125*
1,1,0.1250,-0.1875,0.2125*
%
%ADD12ROUNDEDRECTD12*%
%ADD13C,1.0000*%
G04:AMPARAMS|DCode=14|XSize=0.55mm|YSize=0.5mm|CornerRadius=0.0625mm|HoleSize=0mm|Usage=FLASHONLY|Rotation=0.000|XOffset=0mm|YOffset=0mm|HoleType=Round|Shape=RoundedRectangle|*
%AMROUNDEDRECTD14*
21,1,0.5500,0.3750,0,0,0.0*
21,1,0.4250,0.5000,0,0,0.0*
1,1,0.1250,0.2125,-0.1875*
1,1,0.1250,-0.2125,-0.1875*
1,1,0.1250,-0.2125,0.1875*
1,1,0.1250,0.2125,0.1875*
%
%ADD14ROUNDEDRECTD14*%
%ADD15R,0.8000X0.2750*%
%ADD16R,0.2750X0.8000*%
%ADD17R,2.6500X2.6500*%
%ADD21O,2.0066X1.4986*%
%ADD22C,0.9906*%
%ADD26C,0.2540*%
%ADD27C,1.5240*%
%ADD28R,1.5240X1.5240*%
%ADD29C,0.6096*%
G36*
X320865Y500385D02*
X320649Y500309D01*
X320458Y500182D01*
X320293Y500004D01*
X320153Y499776D01*
X320039Y499496D01*
X319950Y499166D01*
X319887Y498785D01*
X319849Y498353D01*
X319836Y497870D01*
X317296D01*
X317283Y498353D01*
X317245Y498785D01*
X317182Y499166D01*
X317093Y499496D01*
X316978Y499776D01*
X316839Y500004D01*
X316674Y500182D01*
X316483Y500309D01*
X316267Y500385D01*
X316026Y500410D01*
X321106D01*
X320865Y500385D01*
D02*
G37*
G36*
X347462Y501775D02*
X346161Y500287D01*
X345633Y499583D01*
X345186Y498906D01*
X344820Y498254D01*
X344536Y497630D01*
X344333Y497032D01*
X344211Y496460D01*
X344170Y495915D01*
X341630D01*
X341589Y496460D01*
X341467Y497032D01*
X341264Y497630D01*
X340980Y498254D01*
X340614Y498906D01*
X340167Y499583D01*
X339639Y500287D01*
X338338Y501775D01*
X337566Y502558D01*
X348234D01*
X347462Y501775D01*
D02*
G37*
G36*
X129119Y501846D02*
X127830Y500330D01*
X127307Y499615D01*
X126864Y498930D01*
X126501Y498273D01*
X126219Y497646D01*
X126018Y497047D01*
X125926Y496611D01*
X125938Y496535D01*
X126001Y496273D01*
X126081Y496026D01*
X126180Y495795D01*
X126297Y495579D01*
X126432Y495378D01*
X126584Y495193D01*
X126755Y495024D01*
X122492Y494846D01*
X122648Y495029D01*
X122789Y495225D01*
X122913Y495436D01*
X123020Y495660D01*
X123111Y495899D01*
X123185Y496151D01*
X123243Y496417D01*
X123259Y496525D01*
X123153Y497018D01*
X122948Y497616D01*
X122661Y498237D01*
X122292Y498883D01*
X121841Y499552D01*
X121308Y500246D01*
X120693Y500963D01*
X119217Y502470D01*
X129884Y502648D01*
X129119Y501846D01*
D02*
G37*
G36*
X333312Y491550D02*
X333166Y491358D01*
X333036Y491153D01*
X332924Y490932D01*
X332829Y490697D01*
X332751Y490448D01*
X332691Y490184D01*
X332648Y489905D01*
X332622Y489611D01*
X332613Y489303D01*
X330073D01*
X330064Y489611D01*
X330038Y489905D01*
X329995Y490184D01*
X329935Y490448D01*
X329857Y490697D01*
X329762Y490932D01*
X329650Y491153D01*
X329520Y491358D01*
X329374Y491550D01*
X329209Y491726D01*
X333477D01*
X333312Y491550D01*
D02*
G37*
G36*
X249104Y184442D02*
X249305Y184226D01*
X249525Y184035D01*
X249765Y183870D01*
X250026Y183731D01*
X250307Y183616D01*
X250608Y183527D01*
X250930Y183464D01*
X251271Y183426D01*
X251633Y183413D01*
Y180873D01*
X251271Y180860D01*
X250930Y180822D01*
X250608Y180759D01*
X250307Y180670D01*
X250026Y180555D01*
X249765Y180416D01*
X249525Y180251D01*
X249305Y180060D01*
X249104Y179844D01*
X248925Y179603D01*
Y184683D01*
X249104Y184442D01*
D02*
G37*
G36*
X239688Y179418D02*
X239485Y179225D01*
X239305Y179009D01*
X239150Y178771D01*
X239018Y178510D01*
X238910Y178227D01*
X238827Y177922D01*
X238767Y177594D01*
X238731Y177244D01*
X238719Y176872D01*
X236179D01*
X236170Y177283D01*
X236101Y178013D01*
X236040Y178332D01*
X235961Y178619D01*
X235865Y178875D01*
X235752Y179100D01*
X235622Y179294D01*
X235474Y179457D01*
X235308Y179589D01*
X239916D01*
X239688Y179418D01*
D02*
G37*
G36*
X238730Y171979D02*
X238764Y171621D01*
X238820Y171289D01*
X238898Y170980D01*
X238999Y170696D01*
X239122Y170437D01*
X239268Y170202D01*
X239436Y169991D01*
X239627Y169805D01*
X239839Y169643D01*
X234909Y169761D01*
X235150Y169939D01*
X235366Y170136D01*
X235557Y170351D01*
X235722Y170584D01*
X235861Y170835D01*
X235976Y171104D01*
X236065Y171391D01*
X236128Y171696D01*
X236166Y172019D01*
X236179Y172360D01*
X238719D01*
X238730Y171979D01*
D02*
G37*
G36*
X265301Y165507D02*
X265152Y165700D01*
X264975Y165873D01*
X264772Y166025D01*
X264541Y166157D01*
X264283Y166269D01*
X263997Y166360D01*
X263685Y166432D01*
X263345Y166482D01*
X262978Y166513D01*
X262734Y166519D01*
X262487Y166513D01*
X262124Y166481D01*
X261786Y166428D01*
X261475Y166355D01*
X261190Y166260D01*
X260932Y166144D01*
X260699Y166008D01*
X260493Y165850D01*
X260313Y165671D01*
X260159Y165471D01*
Y170079D01*
X260309Y169886D01*
X260485Y169713D01*
X260689Y169561D01*
X260920Y169429D01*
X261178Y169317D01*
X261464Y169226D01*
X261776Y169154D01*
X262116Y169104D01*
X262483Y169073D01*
X262727Y169067D01*
X262974Y169074D01*
X263337Y169105D01*
X263675Y169158D01*
X263986Y169231D01*
X264271Y169326D01*
X264529Y169442D01*
X264762Y169578D01*
X264968Y169736D01*
X265148Y169915D01*
X265301Y170115D01*
Y165507D01*
D02*
G37*
G36*
X234732Y165035D02*
X234585Y165225D01*
X234410Y165394D01*
X234208Y165544D01*
X233978Y165674D01*
X233720Y165784D01*
X233434Y165873D01*
X233121Y165943D01*
X232780Y165993D01*
X232411Y166023D01*
X232215Y166028D01*
X232009Y166022D01*
X231647Y165990D01*
X231311Y165937D01*
X231001Y165862D01*
X230716Y165766D01*
X230457Y165648D01*
X230224Y165509D01*
X230017Y165348D01*
X229835Y165167D01*
X229680Y164963D01*
Y169571D01*
X229827Y169381D01*
X230002Y169212D01*
X230204Y169062D01*
X230434Y168932D01*
X230692Y168822D01*
X230978Y168733D01*
X231291Y168663D01*
X231632Y168613D01*
X232001Y168583D01*
X232197Y168578D01*
X232402Y168584D01*
X232764Y168616D01*
X233100Y168669D01*
X233411Y168744D01*
X233696Y168840D01*
X233954Y168958D01*
X234188Y169097D01*
X234395Y169258D01*
X234576Y169439D01*
X234732Y169643D01*
Y165035D01*
D02*
G37*
G36*
X251973Y170002D02*
X251632Y169643D01*
X251327Y169284D01*
X251057Y168925D01*
X250824Y168565D01*
X250626Y168206D01*
X250464Y167847D01*
X250339Y167488D01*
X250249Y167129D01*
X250195Y166769D01*
X250177Y166410D01*
X246585Y170002D01*
X246944Y170020D01*
X247303Y170074D01*
X247663Y170164D01*
X248022Y170289D01*
X248381Y170451D01*
X248740Y170649D01*
X249100Y170882D01*
X249459Y171152D01*
X249818Y171457D01*
X250177Y171798D01*
X251973Y170002D01*
D02*
G37*
G36*
X270554Y169928D02*
X270727Y169762D01*
X270928Y169615D01*
X271157Y169488D01*
X271415Y169380D01*
X271701Y169292D01*
X272015Y169223D01*
X272249Y169190D01*
X272404Y169214D01*
X272667Y169276D01*
X272916Y169355D01*
X273149Y169451D01*
X273368Y169566D01*
X273571Y169697D01*
X273760Y169847D01*
X273934Y170014D01*
X274009Y165747D01*
X273830Y165908D01*
X273636Y166052D01*
X273428Y166180D01*
X273206Y166290D01*
X272970Y166383D01*
X272719Y166459D01*
X272454Y166519D01*
X272312Y166540D01*
X272045Y166497D01*
X271736Y166421D01*
X271451Y166323D01*
X271192Y166203D01*
X270958Y166062D01*
X270750Y165899D01*
X270567Y165714D01*
X270409Y165507D01*
Y170115D01*
X270554Y169928D01*
D02*
G37*
G36*
X265301Y156507D02*
X265150Y156704D01*
X264972Y156880D01*
X264767Y157035D01*
X264535Y157169D01*
X264277Y157283D01*
X263992Y157376D01*
X263680Y157448D01*
X263341Y157500D01*
X262976Y157531D01*
X262734Y157537D01*
X262489Y157530D01*
X262127Y157498D01*
X261791Y157445D01*
X261481Y157370D01*
X261196Y157274D01*
X260937Y157156D01*
X260704Y157017D01*
X260497Y156856D01*
X260315Y156675D01*
X260159Y156471D01*
Y161079D01*
X260307Y160889D01*
X260481Y160720D01*
X260684Y160570D01*
X260914Y160440D01*
X261172Y160330D01*
X261458Y160241D01*
X261771Y160171D01*
X262112Y160121D01*
X262481Y160091D01*
X262727Y160085D01*
X262976Y160091D01*
X263341Y160122D01*
X263680Y160174D01*
X263992Y160246D01*
X264277Y160339D01*
X264535Y160453D01*
X264767Y160588D01*
X264972Y160742D01*
X265150Y160918D01*
X265301Y161115D01*
Y156507D01*
D02*
G37*
G36*
X244892Y156217D02*
X244752Y156397D01*
X244582Y156557D01*
X244383Y156698D01*
X244155Y156821D01*
X243898Y156924D01*
X243612Y157009D01*
X243296Y157075D01*
X242952Y157122D01*
X242578Y157151D01*
X242388Y157155D01*
X242176Y157149D01*
X241819Y157115D01*
X241487Y157059D01*
X241178Y156980D01*
X240895Y156879D01*
X240635Y156755D01*
X240400Y156609D01*
X240189Y156440D01*
X240002Y156249D01*
X239839Y156035D01*
Y160643D01*
X239980Y160464D01*
X240150Y160303D01*
X240349Y160162D01*
X240577Y160039D01*
X240834Y159936D01*
X241120Y159851D01*
X241436Y159785D01*
X241780Y159738D01*
X242154Y159709D01*
X242344Y159705D01*
X242556Y159711D01*
X242913Y159745D01*
X243245Y159801D01*
X243553Y159880D01*
X243837Y159981D01*
X244097Y160105D01*
X244332Y160251D01*
X244543Y160420D01*
X244730Y160611D01*
X244892Y160825D01*
Y156217D01*
D02*
G37*
G36*
X280452Y159375D02*
X280301Y159572D01*
X280123Y159747D01*
X279918Y159902D01*
X279686Y160037D01*
X279428Y160151D01*
X279142Y160244D01*
X278831Y160316D01*
X278492Y160368D01*
X278127Y160399D01*
X277735Y160409D01*
Y162949D01*
X278127Y162959D01*
X278492Y162990D01*
X278831Y163042D01*
X279142Y163114D01*
X279428Y163207D01*
X279686Y163321D01*
X279918Y163456D01*
X280123Y163610D01*
X280301Y163786D01*
X280452Y163983D01*
Y159375D01*
D02*
G37*
G36*
X258622Y156294D02*
X258381Y156268D01*
X258165Y156192D01*
X257974Y156065D01*
X257809Y155887D01*
X257669Y155659D01*
X257555Y155379D01*
X257466Y155049D01*
X257403Y154668D01*
X257365Y154236D01*
X257352Y153754D01*
X254812D01*
X254921Y156668D01*
X258622Y156294D01*
D02*
G37*
G36*
X249745Y156028D02*
X249529Y155828D01*
X249338Y155608D01*
X249173Y155368D01*
X249033Y155107D01*
X248919Y154826D01*
X248830Y154525D01*
X248767Y154203D01*
X248729Y153862D01*
X248716Y153500D01*
X246176D01*
X246163Y153862D01*
X246125Y154203D01*
X246062Y154525D01*
X245973Y154826D01*
X245858Y155107D01*
X245719Y155368D01*
X245554Y155608D01*
X245363Y155828D01*
X245147Y156028D01*
X244906Y156208D01*
X249986D01*
X249745Y156028D01*
D02*
G37*
G36*
X229425Y155774D02*
X229209Y155574D01*
X229018Y155354D01*
X228853Y155114D01*
X228713Y154853D01*
X228599Y154572D01*
X228510Y154271D01*
X228447Y153949D01*
X228409Y153608D01*
X228406Y153532D01*
X228409Y153456D01*
X228447Y153115D01*
X228510Y152793D01*
X228599Y152492D01*
X228713Y152211D01*
X228853Y151950D01*
X229018Y151710D01*
X229209Y151490D01*
X229425Y151290D01*
X229666Y151110D01*
X224586D01*
X224827Y151290D01*
X225043Y151490D01*
X225234Y151710D01*
X225399Y151950D01*
X225538Y152211D01*
X225653Y152492D01*
X225742Y152793D01*
X225805Y153115D01*
X225843Y153456D01*
X225846Y153532D01*
X225843Y153608D01*
X225805Y153949D01*
X225742Y154271D01*
X225653Y154572D01*
X225538Y154853D01*
X225399Y155114D01*
X225234Y155354D01*
X225043Y155574D01*
X224827Y155774D01*
X224586Y155954D01*
X229666D01*
X229425Y155774D01*
D02*
G37*
G36*
X285711Y154786D02*
X285889Y154611D01*
X286094Y154455D01*
X286326Y154321D01*
X286584Y154207D01*
X286869Y154114D01*
X287181Y154042D01*
X287520Y153990D01*
X287885Y153959D01*
X288277Y153949D01*
Y151409D01*
X287885Y151399D01*
X287520Y151368D01*
X287181Y151316D01*
X286869Y151244D01*
X286584Y151151D01*
X286326Y151037D01*
X286094Y150903D01*
X285889Y150747D01*
X285711Y150572D01*
X285560Y150375D01*
Y154983D01*
X285711Y154786D01*
D02*
G37*
G36*
X280452Y153385D02*
X284117Y150198D01*
X283758Y150180D01*
X283398Y150126D01*
X283039Y150036D01*
X282680Y149910D01*
X282321Y149749D01*
X281962Y149551D01*
X281602Y149318D01*
X281243Y149048D01*
X280884Y148743D01*
X280525Y148402D01*
X278479Y149948D01*
X278820Y150307D01*
X279125Y150666D01*
X279395Y151025D01*
X279465Y151134D01*
X279428Y151151D01*
X279142Y151244D01*
X278831Y151316D01*
X278492Y151368D01*
X278127Y151399D01*
X277735Y151409D01*
Y153949D01*
X278127Y153959D01*
X278492Y153990D01*
X278831Y154042D01*
X279142Y154114D01*
X279428Y154207D01*
X279686Y154321D01*
X279918Y154455D01*
X280123Y154611D01*
X280301Y154786D01*
X280452Y154983D01*
Y153385D01*
D02*
G37*
G36*
X218459Y147091D02*
X218218Y147082D01*
X217980Y147051D01*
X217742Y146997D01*
X217507Y146920D01*
X217274Y146822D01*
X217042Y146700D01*
X216813Y146556D01*
X216585Y146389D01*
X216359Y146200D01*
X216136Y145989D01*
X214340Y147785D01*
X214551Y148008D01*
X214740Y148234D01*
X214907Y148462D01*
X215051Y148692D01*
X215173Y148923D01*
X215271Y149156D01*
X215348Y149391D01*
X215402Y149629D01*
X215433Y149868D01*
X215442Y150108D01*
X218459Y147091D01*
D02*
G37*
G36*
X229875Y149549D02*
X229929Y149190D01*
X230019Y148830D01*
X230144Y148471D01*
X230306Y148112D01*
X230504Y147753D01*
X230737Y147393D01*
X231007Y147034D01*
X231312Y146675D01*
X231653Y146316D01*
X229857Y144520D01*
X229498Y144861D01*
X229139Y145166D01*
X228780Y145436D01*
X228420Y145669D01*
X228061Y145867D01*
X227702Y146028D01*
X227343Y146154D01*
X226983Y146244D01*
X226624Y146298D01*
X226265Y146316D01*
X229857Y149908D01*
X229875Y149549D01*
D02*
G37*
G36*
X263378Y147482D02*
X263183Y147405D01*
X263009Y147302D01*
X262855Y147172D01*
X262721Y147015D01*
X262608Y146832D01*
X262516Y146622D01*
X262444Y146386D01*
X262393Y146124D01*
X262362Y145834D01*
X262354Y145590D01*
X262426Y143128D01*
X259737D01*
X259751Y143154D01*
X259764Y143230D01*
X259775Y143357D01*
X259805Y144373D01*
X259812Y145668D01*
X261212D01*
X259812Y145852D01*
X259810Y146417D01*
X259647Y149218D01*
X259608Y149354D01*
X263378Y147482D01*
D02*
G37*
G36*
X257426Y143128D02*
X254737D01*
X254751Y143154D01*
X254764Y143230D01*
X254775Y143357D01*
X254805Y144373D01*
X254812Y145668D01*
X257352D01*
X257426Y143128D01*
D02*
G37*
G36*
X252426D02*
X249737D01*
X249751Y143154D01*
X249764Y143230D01*
X249775Y143357D01*
X249805Y144373D01*
X249812Y145668D01*
X252352D01*
X252426Y143128D01*
D02*
G37*
G36*
X194164Y144367D02*
X193948Y144112D01*
X193758Y143832D01*
X193593Y143525D01*
X193453Y143194D01*
X193339Y142837D01*
X193250Y142454D01*
X193186Y142046D01*
X193148Y141612D01*
X193135Y141153D01*
X190595Y140518D01*
X190583Y140936D01*
X190545Y141311D01*
X190481Y141642D01*
X190392Y141928D01*
X190278Y142171D01*
X190138Y142369D01*
X189973Y142524D01*
X189783Y142634D01*
X189567Y142700D01*
X189325Y142722D01*
X194405Y144597D01*
X194164Y144367D01*
D02*
G37*
G36*
X270280Y143371D02*
X270063Y143309D01*
X269845Y143230D01*
X269627Y143134D01*
X269408Y143021D01*
X269189Y142892D01*
X268969Y142745D01*
X268673Y142515D01*
X268307Y142063D01*
X268073Y141713D01*
X267875Y141366D01*
X267714Y141022D01*
X267588Y140680D01*
X267498Y140341D01*
X267444Y140005D01*
X267426Y139671D01*
X264737Y143128D01*
X264925Y143146D01*
X265131Y143200D01*
X265354Y143290D01*
X265596Y143416D01*
X265856Y143577D01*
X266134Y143775D01*
X266292Y143905D01*
X266322Y143949D01*
X266448Y144176D01*
X266546Y144403D01*
X266615Y144629D01*
X266655Y144855D01*
X266666Y145082D01*
X266648Y145308D01*
X266602Y145534D01*
X270280Y143371D01*
D02*
G37*
G36*
X285483Y139404D02*
X285337Y139213D01*
X285207Y139007D01*
X285095Y138786D01*
X285000Y138551D01*
X284922Y138302D01*
X284862Y138038D01*
X284818Y137759D01*
X284792Y137465D01*
X284784Y137157D01*
X282244D01*
X282235Y137465D01*
X282209Y137759D01*
X282166Y138038D01*
X282106Y138302D01*
X282028Y138551D01*
X281933Y138786D01*
X281821Y139007D01*
X281691Y139213D01*
X281544Y139404D01*
X281380Y139580D01*
X285648D01*
X285483Y139404D01*
D02*
G37*
G36*
X293175Y139493D02*
X293004Y139324D01*
X292852Y139138D01*
X292717Y138938D01*
X292600Y138722D01*
X292501Y138491D01*
X292421Y138244D01*
X292358Y137982D01*
X292313Y137704D01*
X292286Y137411D01*
X292277Y137103D01*
X289737Y137219D01*
X289729Y137527D01*
X289704Y137821D01*
X289663Y138100D01*
X289605Y138366D01*
X289531Y138618D01*
X289440Y138857D01*
X289332Y139081D01*
X289209Y139292D01*
X289068Y139488D01*
X288911Y139671D01*
X293175Y139493D01*
D02*
G37*
G36*
X244737Y136619D02*
X244712Y136860D01*
X244636Y137076D01*
X244509Y137267D01*
X244331Y137432D01*
X244102Y137571D01*
X243823Y137686D01*
X243493Y137775D01*
X243112Y137838D01*
X242680Y137876D01*
X242197Y137889D01*
Y140429D01*
X242680Y140442D01*
X243112Y140480D01*
X243493Y140543D01*
X243823Y140632D01*
X244102Y140746D01*
X244331Y140886D01*
X244509Y141051D01*
X244636Y141242D01*
X244712Y141458D01*
X244737Y141699D01*
Y136619D01*
D02*
G37*
G36*
X229875Y140549D02*
X229929Y140190D01*
X230019Y139830D01*
X230144Y139471D01*
X230306Y139112D01*
X230504Y138753D01*
X230737Y138393D01*
X231007Y138034D01*
X231312Y137675D01*
X231653Y137316D01*
X229857Y135520D01*
X229498Y135861D01*
X229139Y136166D01*
X228780Y136436D01*
X228420Y136669D01*
X228061Y136867D01*
X227702Y137029D01*
X227343Y137154D01*
X226983Y137244D01*
X226624Y137298D01*
X226265Y137316D01*
X229857Y140908D01*
X229875Y140549D01*
D02*
G37*
G36*
X292288Y135407D02*
X292323Y135053D01*
X292381Y134723D01*
X292462Y134416D01*
X292566Y134132D01*
X292693Y133872D01*
X292844Y133636D01*
X293017Y133423D01*
X293214Y133233D01*
X293433Y133067D01*
X288467Y133161D01*
X288708Y133340D01*
X288924Y133537D01*
X289115Y133753D01*
X289280Y133988D01*
X289419Y134241D01*
X289534Y134512D01*
X289623Y134803D01*
X289686Y135111D01*
X289724Y135438D01*
X289737Y135784D01*
X292277D01*
X292288Y135407D01*
D02*
G37*
G36*
X276865Y133061D02*
X276903Y132629D01*
X276966Y132248D01*
X277055Y131918D01*
X277169Y131638D01*
X277309Y131410D01*
X277474Y131232D01*
X277665Y131105D01*
X277881Y131029D01*
X278122Y131004D01*
X273042D01*
X273283Y131029D01*
X273499Y131105D01*
X273690Y131232D01*
X273855Y131410D01*
X273994Y131638D01*
X274109Y131918D01*
X274198Y132248D01*
X274261Y132629D01*
X274299Y133061D01*
X274312Y133544D01*
X276852D01*
X276865Y133061D01*
D02*
G37*
G36*
X235132Y132881D02*
X235164Y132487D01*
X235216Y132139D01*
X235289Y131838D01*
X235384Y131583D01*
X235499Y131374D01*
X235635Y131212D01*
X235792Y131096D01*
X235970Y131027D01*
X236169Y131004D01*
X232612D01*
X232582Y133321D01*
X235122D01*
X235132Y132881D01*
D02*
G37*
G36*
X213028Y124471D02*
X212858Y124698D01*
X212665Y124901D01*
X212449Y125080D01*
X212211Y125235D01*
X211950Y125366D01*
X211667Y125473D01*
X211362Y125557D01*
X211034Y125616D01*
X210684Y125652D01*
X210676Y125652D01*
X210323Y125619D01*
X209991Y125563D01*
X209683Y125484D01*
X209399Y125383D01*
X209139Y125259D01*
X208904Y125113D01*
X208693Y124944D01*
X208506Y124753D01*
X208344Y124539D01*
Y129147D01*
X208484Y128968D01*
X208654Y128807D01*
X208853Y128666D01*
X209081Y128543D01*
X209338Y128440D01*
X209624Y128355D01*
X209940Y128289D01*
X210284Y128242D01*
X210630Y128216D01*
X210661Y128217D01*
X210992Y128255D01*
X211305Y128318D01*
X211598Y128407D01*
X211872Y128521D01*
X212127Y128661D01*
X212364Y128826D01*
X212581Y129017D01*
X212779Y129233D01*
X212958Y129474D01*
X213028Y124471D01*
D02*
G37*
G36*
X203418Y130779D02*
X203777Y130474D01*
X204136Y130204D01*
X204496Y129971D01*
X204855Y129773D01*
X205214Y129612D01*
X205573Y129486D01*
X205932Y129396D01*
X206292Y129342D01*
X206651Y129324D01*
X203059Y125732D01*
X203041Y126091D01*
X202987Y126451D01*
X202897Y126810D01*
X202771Y127169D01*
X202610Y127528D01*
X202412Y127887D01*
X202179Y128247D01*
X201909Y128606D01*
X201604Y128965D01*
X201263Y129324D01*
X203059Y131120D01*
X203418Y130779D01*
D02*
G37*
G36*
X226824Y129324D02*
X227024Y129108D01*
X227245Y128917D01*
X227485Y128752D01*
X227746Y128612D01*
X228027Y128498D01*
X228328Y128409D01*
X228650Y128346D01*
X228991Y128308D01*
X229353Y128295D01*
Y125755D01*
X228991Y125742D01*
X228650Y125704D01*
X228328Y125641D01*
X228027Y125552D01*
X227746Y125437D01*
X227485Y125298D01*
X227245Y125133D01*
X227024Y124942D01*
X226824Y124726D01*
X226645Y124485D01*
Y129565D01*
X226824Y129324D01*
D02*
G37*
G36*
X279568Y126000D02*
X279618Y125998D01*
X281206Y125988D01*
Y123448D01*
X280892Y123446D01*
X279618Y123362D01*
X279568Y123340D01*
X279551Y123315D01*
Y126004D01*
X279568Y126000D01*
D02*
G37*
G36*
X332622Y124742D02*
X332649Y124449D01*
X332694Y124171D01*
X332757Y123909D01*
X332837Y123662D01*
X332936Y123431D01*
X333053Y123215D01*
X333188Y123014D01*
X333340Y122829D01*
X333511Y122660D01*
X329248Y122482D01*
X329404Y122665D01*
X329545Y122861D01*
X329669Y123072D01*
X329776Y123296D01*
X329867Y123535D01*
X329941Y123787D01*
X329999Y124053D01*
X330040Y124333D01*
X330065Y124626D01*
X330073Y124934D01*
X332613Y125050D01*
X332622Y124742D01*
D02*
G37*
G36*
X319844Y123189D02*
X319870Y122895D01*
X319914Y122616D01*
X319974Y122352D01*
X320052Y122103D01*
X320147Y121868D01*
X320259Y121647D01*
X320389Y121441D01*
X320535Y121250D01*
X320700Y121074D01*
X316432D01*
X316596Y121250D01*
X316743Y121441D01*
X316873Y121647D01*
X316985Y121868D01*
X317080Y122103D01*
X317158Y122352D01*
X317218Y122616D01*
X317261Y122895D01*
X317287Y123189D01*
X317296Y123497D01*
X319836D01*
X319844Y123189D01*
D02*
G37*
G36*
X295407Y124244D02*
X295066Y123885D01*
X294760Y123526D01*
X294491Y123167D01*
X294258Y122807D01*
X294060Y122448D01*
X293898Y122089D01*
X293773Y121730D01*
X293683Y121370D01*
X293629Y121011D01*
X293611Y120652D01*
X290019Y124244D01*
X290378Y124262D01*
X290737Y124316D01*
X291097Y124406D01*
X291456Y124532D01*
X291815Y124693D01*
X292174Y124891D01*
X292533Y125124D01*
X292893Y125394D01*
X293252Y125699D01*
X293611Y126040D01*
X295407Y124244D01*
D02*
G37*
G36*
X288755Y119282D02*
X285654Y118389D01*
X285609Y120929D01*
X286091Y120942D01*
X286523Y120980D01*
X286904Y121043D01*
X287234Y121132D01*
X287514Y121247D01*
X287742Y121386D01*
X287920Y121551D01*
X288047Y121742D01*
X288123Y121958D01*
X288149Y122199D01*
X288755Y119282D01*
D02*
G37*
G36*
X279577Y120989D02*
X279653Y120977D01*
X279780Y120965D01*
X280796Y120936D01*
X282091Y120929D01*
Y118389D01*
X279551Y118315D01*
Y121004D01*
X279577Y120989D01*
D02*
G37*
G36*
X232612Y118315D02*
X230072Y117304D01*
Y119844D01*
X230555Y119856D01*
X230987Y119890D01*
X231368Y119948D01*
X231698Y120029D01*
X231977Y120134D01*
X232206Y120261D01*
X232384Y120412D01*
X232511Y120586D01*
X232587Y120783D01*
X232612Y121004D01*
Y118315D01*
D02*
G37*
G36*
X226466Y119888D02*
X226556Y119879D01*
X226883Y119863D01*
X229046Y119844D01*
X229339Y117304D01*
X228857Y117291D01*
X228425Y117253D01*
X228044Y117190D01*
X227714Y117101D01*
X227434Y116987D01*
X227206Y116847D01*
X227028Y116682D01*
X226901Y116491D01*
X226824Y116275D01*
X226799Y116034D01*
X226425Y119898D01*
X226466Y119888D01*
D02*
G37*
G36*
X208516Y119630D02*
X208710Y119425D01*
X208926Y119244D01*
X209165Y119088D01*
X209425Y118955D01*
X209708Y118847D01*
X210013Y118762D01*
X210340Y118702D01*
X210689Y118666D01*
X211037Y118699D01*
X211370Y118754D01*
X211679Y118832D01*
X211963Y118932D01*
X212223Y119054D01*
X212458Y119199D01*
X212668Y119366D01*
X212853Y119555D01*
X213014Y119767D01*
X212891Y114844D01*
X212712Y115085D01*
X212516Y115301D01*
X212301Y115492D01*
X212069Y115657D01*
X211818Y115796D01*
X211550Y115911D01*
X211263Y116000D01*
X210959Y116063D01*
X210637Y116101D01*
X210614Y116102D01*
X209917Y116036D01*
X209599Y115976D01*
X209311Y115898D01*
X209055Y115803D01*
X208830Y115691D01*
X208637Y115562D01*
X208475Y115415D01*
X208344Y115251D01*
Y119859D01*
X208516Y119630D01*
D02*
G37*
G36*
X298113Y115852D02*
X297872Y115851D01*
X297633Y115826D01*
X297396Y115778D01*
X297161Y115707D01*
X296927Y115612D01*
X296696Y115494D01*
X296466Y115352D01*
X296238Y115188D01*
X296012Y114999D01*
X295787Y114787D01*
X294058Y116650D01*
X294270Y116873D01*
X294459Y117099D01*
X294628Y117326D01*
X294774Y117555D01*
X294899Y117786D01*
X295002Y118019D01*
X295084Y118254D01*
X295144Y118490D01*
X295182Y118729D01*
X295199Y118969D01*
X298113Y115852D01*
D02*
G37*
G36*
X279577Y115989D02*
X279653Y115977D01*
X279780Y115965D01*
X280796Y115936D01*
X282091Y115929D01*
Y113389D01*
X279551Y113315D01*
Y116004D01*
X279577Y115989D01*
D02*
G37*
G36*
X206651Y115074D02*
X206292Y115056D01*
X205932Y115002D01*
X205573Y114912D01*
X205214Y114786D01*
X204855Y114625D01*
X204496Y114427D01*
X204136Y114194D01*
X203777Y113924D01*
X203418Y113619D01*
X203059Y113278D01*
X201263Y115074D01*
X201604Y115433D01*
X201909Y115792D01*
X202179Y116151D01*
X202412Y116511D01*
X202610Y116870D01*
X202771Y117229D01*
X202897Y117588D01*
X202987Y117948D01*
X203041Y118307D01*
X203059Y118666D01*
X206651Y115074D01*
D02*
G37*
G36*
X335416Y111853D02*
X335205Y111629D01*
X335016Y111404D01*
X334849Y111176D01*
X334705Y110947D01*
X334583Y110715D01*
X334484Y110482D01*
X334408Y110246D01*
X334354Y110009D01*
X334323Y109770D01*
X334314Y109529D01*
X331296Y112547D01*
X331537Y112556D01*
X331776Y112587D01*
X332013Y112641D01*
X332249Y112718D01*
X332482Y112816D01*
X332713Y112938D01*
X332943Y113082D01*
X333171Y113249D01*
X333396Y113438D01*
X333620Y113649D01*
X335416Y111853D01*
D02*
G37*
G36*
X279577Y110998D02*
X279653Y110994D01*
X281609Y110976D01*
X282091Y110976D01*
Y108436D01*
X279551Y108315D01*
Y111004D01*
X279577Y110998D01*
D02*
G37*
G36*
X296864Y107586D02*
X296685Y107748D01*
X296492Y107892D01*
X296284Y108020D01*
X296063Y108130D01*
X295826Y108223D01*
X295576Y108300D01*
X295311Y108359D01*
X295032Y108402D01*
X294738Y108427D01*
X294430Y108436D01*
X294387Y110976D01*
X294695Y110985D01*
X294989Y111011D01*
X295267Y111055D01*
X295530Y111116D01*
X295779Y111195D01*
X296013Y111292D01*
X296232Y111406D01*
X296435Y111537D01*
X296625Y111686D01*
X296799Y111853D01*
X296864Y107586D01*
D02*
G37*
G36*
X236204Y108315D02*
X235845Y108296D01*
X235486Y108243D01*
X235127Y108153D01*
X234768Y108027D01*
X234408Y107865D01*
X234049Y107668D01*
X233690Y107434D01*
X233331Y107165D01*
X232972Y106860D01*
X232612Y106518D01*
X230816Y108315D01*
X231158Y108665D01*
X231966Y109607D01*
X232163Y109885D01*
X232325Y110145D01*
X232451Y110386D01*
X232541Y110610D01*
X232594Y110816D01*
X232612Y111004D01*
X236204Y108315D01*
D02*
G37*
G36*
X228601Y109440D02*
X228260Y109081D01*
X227955Y108722D01*
X227685Y108363D01*
X227452Y108003D01*
X227254Y107644D01*
X227092Y107285D01*
X226967Y106926D01*
X226877Y106566D01*
X226823Y106207D01*
X226805Y105848D01*
X223213Y109440D01*
X223572Y109458D01*
X223931Y109512D01*
X224291Y109602D01*
X224650Y109727D01*
X225009Y109889D01*
X225368Y110087D01*
X225727Y110320D01*
X226087Y110590D01*
X226446Y110895D01*
X226805Y111236D01*
X228601Y109440D01*
D02*
G37*
G36*
X208089Y106062D02*
X207873Y105862D01*
X207682Y105642D01*
X207517Y105402D01*
X207377Y105141D01*
X207263Y104860D01*
X207174Y104559D01*
X207111Y104237D01*
X207073Y103896D01*
X207060Y103534D01*
X204520D01*
X204507Y103896D01*
X204469Y104237D01*
X204406Y104559D01*
X204317Y104860D01*
X204202Y105141D01*
X204063Y105402D01*
X203898Y105642D01*
X203707Y105862D01*
X203491Y106062D01*
X203250Y106242D01*
X208330D01*
X208089Y106062D01*
D02*
G37*
G36*
X193139Y103469D02*
X193248Y101999D01*
X193288Y101823D01*
X193335Y101686D01*
X193388Y101589D01*
X193447Y101531D01*
X190283Y102630D01*
X190343Y102638D01*
X190396Y102672D01*
X190443Y102732D01*
X190483Y102818D01*
X190517Y102930D01*
X190545Y103069D01*
X190567Y103232D01*
X190592Y103638D01*
X190595Y103880D01*
X193135D01*
X193139Y103469D01*
D02*
G37*
G36*
X143164Y104276D02*
X143125Y104010D01*
X143129Y103736D01*
X143178Y103455D01*
X143270Y103165D01*
X143406Y102867D01*
X143586Y102561D01*
X143810Y102248D01*
X144078Y101926D01*
X144389Y101597D01*
X142593Y99801D01*
X142263Y100112D01*
X141942Y100380D01*
X141628Y100604D01*
X141323Y100784D01*
X141025Y100920D01*
X140735Y101012D01*
X140453Y101060D01*
X140179Y101065D01*
X139913Y101025D01*
X139656Y100942D01*
X143248Y104534D01*
X143164Y104276D01*
D02*
G37*
G36*
X228601Y100440D02*
X228260Y100081D01*
X227955Y99722D01*
X227685Y99363D01*
X227452Y99003D01*
X227254Y98644D01*
X227092Y98285D01*
X226967Y97926D01*
X226877Y97566D01*
X226823Y97207D01*
X226805Y96848D01*
X223213Y100440D01*
X223572Y100458D01*
X223931Y100512D01*
X224291Y100602D01*
X224650Y100728D01*
X225009Y100889D01*
X225368Y101087D01*
X225727Y101320D01*
X226087Y101590D01*
X226446Y101895D01*
X226805Y102236D01*
X228601Y100440D01*
D02*
G37*
G36*
X244737Y96189D02*
X243352Y96159D01*
Y98699D01*
X243615Y98700D01*
X244682Y98773D01*
X244723Y98792D01*
X244737Y98814D01*
Y96189D01*
D02*
G37*
G36*
X252392Y96167D02*
X252362Y96100D01*
X252335Y95987D01*
X252311Y95830D01*
X252276Y95380D01*
X252249Y94367D01*
X252247Y93940D01*
X249707D01*
X249737Y96189D01*
X252426D01*
X252392Y96167D01*
D02*
G37*
G36*
X224935Y95478D02*
X224576Y95460D01*
X224216Y95406D01*
X223857Y95316D01*
X223498Y95190D01*
X223139Y95029D01*
X222780Y94831D01*
X222420Y94598D01*
X222061Y94328D01*
X221702Y94023D01*
X221343Y93682D01*
X219547Y95478D01*
X219888Y95837D01*
X220193Y96196D01*
X220463Y96556D01*
X220696Y96915D01*
X220894Y97274D01*
X221055Y97633D01*
X221181Y97992D01*
X221271Y98351D01*
X221325Y98711D01*
X221343Y99070D01*
X224935Y95478D01*
D02*
G37*
G36*
X267412Y96164D02*
X267400Y96088D01*
X267388Y95962D01*
X267359Y94952D01*
X267352Y93665D01*
X264812D01*
X264737Y96189D01*
X267426D01*
X267412Y96164D01*
D02*
G37*
G36*
X262412Y96164D02*
X262400Y96088D01*
X262388Y95961D01*
X262359Y94945D01*
X262352Y93650D01*
X259812D01*
X259737Y96189D01*
X262426D01*
X262412Y96164D01*
D02*
G37*
G36*
X257412D02*
X257400Y96088D01*
X257388Y95961D01*
X257359Y94945D01*
X257352Y93650D01*
X254812D01*
X254737Y96189D01*
X257426D01*
X257412Y96164D01*
D02*
G37*
G36*
X208485Y96166D02*
X208711Y95977D01*
X208939Y95810D01*
X209168Y95666D01*
X209400Y95544D01*
X209633Y95445D01*
X209868Y95369D01*
X210105Y95315D01*
X210345Y95284D01*
X210585Y95275D01*
X207568Y92257D01*
X207559Y92498D01*
X207528Y92737D01*
X207474Y92975D01*
X207397Y93210D01*
X207299Y93443D01*
X207177Y93674D01*
X207033Y93904D01*
X206866Y94132D01*
X206677Y94358D01*
X206465Y94581D01*
X208262Y96377D01*
X208485Y96166D01*
D02*
G37*
G36*
X262365Y92284D02*
X262403Y91852D01*
X262466Y91471D01*
X262555Y91141D01*
X262669Y90861D01*
X262809Y90633D01*
X262974Y90455D01*
X263165Y90328D01*
X263381Y90252D01*
X263622Y90226D01*
X260771Y89620D01*
X259812Y92678D01*
X262352Y92766D01*
X262365Y92284D01*
D02*
G37*
G36*
X257352Y92591D02*
X256263Y89620D01*
X253542Y90226D01*
X253783Y90252D01*
X253999Y90328D01*
X254190Y90455D01*
X254355Y90633D01*
X254494Y90861D01*
X254609Y91141D01*
X254698Y91471D01*
X254761Y91852D01*
X254799Y92284D01*
X254812Y92766D01*
X257352Y92591D01*
D02*
G37*
G36*
X249059Y90226D02*
X248718Y89867D01*
X248413Y89508D01*
X248143Y89149D01*
X247910Y88789D01*
X247712Y88430D01*
X247551Y88071D01*
X247425Y87712D01*
X247335Y87353D01*
X247281Y86993D01*
X247263Y86634D01*
X243671Y90226D01*
X244030Y90244D01*
X244389Y90298D01*
X244749Y90388D01*
X245108Y90513D01*
X245467Y90675D01*
X245826Y90873D01*
X246185Y91106D01*
X246545Y91376D01*
X246904Y91681D01*
X247263Y92022D01*
X249059Y90226D01*
D02*
G37*
G36*
X269880Y91681D02*
X270239Y91376D01*
X270598Y91106D01*
X270958Y90873D01*
X271317Y90675D01*
X271676Y90513D01*
X272035Y90388D01*
X272394Y90298D01*
X272754Y90244D01*
X273113Y90226D01*
X269771Y86384D01*
X269753Y86743D01*
X269699Y87102D01*
X269609Y87462D01*
X269483Y87821D01*
X269322Y88180D01*
X269124Y88539D01*
X268891Y88899D01*
X268621Y89258D01*
X268316Y89617D01*
X267975Y89976D01*
X269521Y92022D01*
X269880Y91681D01*
D02*
G37*
G36*
X216976Y87200D02*
X217007Y86835D01*
X217059Y86496D01*
X217131Y86184D01*
X217224Y85899D01*
X217338Y85641D01*
X217472Y85409D01*
X217627Y85204D01*
X217803Y85026D01*
X217999Y84875D01*
X213392D01*
X213589Y85026D01*
X213764Y85204D01*
X213919Y85409D01*
X214054Y85641D01*
X214167Y85899D01*
X214261Y86184D01*
X214333Y86496D01*
X214385Y86835D01*
X214416Y87200D01*
X214426Y87592D01*
X216966D01*
X216976Y87200D01*
D02*
G37*
G36*
X274359Y84790D02*
X274183Y84612D01*
X274028Y84407D01*
X273894Y84175D01*
X273780Y83917D01*
X273687Y83632D01*
X273615Y83320D01*
X273563Y82981D01*
X273532Y82616D01*
X273522Y82224D01*
X270982D01*
X270972Y82616D01*
X270940Y82981D01*
X270889Y83320D01*
X270816Y83632D01*
X270723Y83917D01*
X270610Y84175D01*
X270475Y84407D01*
X270320Y84612D01*
X270145Y84790D01*
X269948Y84941D01*
X274555D01*
X274359Y84790D01*
D02*
G37*
G36*
X246877Y84782D02*
X246690Y84598D01*
X246525Y84389D01*
X246382Y84154D01*
X246262Y83895D01*
X246163Y83611D01*
X246086Y83301D01*
X246031Y82967D01*
X246010Y82736D01*
X246036Y82488D01*
X246097Y82162D01*
X246182Y81858D01*
X246292Y81575D01*
X246426Y81314D01*
X246584Y81075D01*
X246767Y80858D01*
X246974Y80662D01*
X247206Y80489D01*
X242177Y80541D01*
X242418Y80721D01*
X242634Y80919D01*
X242825Y81137D01*
X242990Y81375D01*
X243129Y81632D01*
X243244Y81908D01*
X243333Y82203D01*
X243396Y82518D01*
X243425Y82775D01*
X243408Y82995D01*
X243360Y83338D01*
X243292Y83652D01*
X243205Y83938D01*
X243098Y84196D01*
X242972Y84425D01*
X242827Y84626D01*
X242662Y84798D01*
X242478Y84941D01*
X247085D01*
X246877Y84782D01*
D02*
G37*
G36*
X265345Y84781D02*
X265158Y84596D01*
X264992Y84387D01*
X264848Y84152D01*
X264726Y83893D01*
X264627Y83609D01*
X264549Y83300D01*
X264494Y82966D01*
X264461Y82607D01*
X264458Y82513D01*
X264459Y82459D01*
X264488Y82087D01*
X264536Y81744D01*
X264604Y81429D01*
X264690Y81143D01*
X264796Y80886D01*
X264921Y80657D01*
X265065Y80457D01*
X265229Y80285D01*
X265411Y80143D01*
X260804D01*
X261014Y80303D01*
X261202Y80488D01*
X261368Y80697D01*
X261512Y80932D01*
X261633Y81191D01*
X261733Y81475D01*
X261810Y81784D01*
X261866Y82118D01*
X261899Y82477D01*
X261902Y82571D01*
X261900Y82625D01*
X261871Y82997D01*
X261823Y83340D01*
X261756Y83655D01*
X261670Y83941D01*
X261564Y84198D01*
X261439Y84427D01*
X261294Y84627D01*
X261131Y84799D01*
X260948Y84941D01*
X265555D01*
X265345Y84781D01*
D02*
G37*
G36*
X255920Y84810D02*
X255772Y84647D01*
X255641Y84452D01*
X255528Y84227D01*
X255432Y83971D01*
X255354Y83684D01*
X255293Y83365D01*
X255250Y83016D01*
X255224Y82635D01*
X255223Y82607D01*
X255227Y82488D01*
X255263Y82138D01*
X255323Y81810D01*
X255406Y81505D01*
X255514Y81222D01*
X255646Y80961D01*
X255801Y80723D01*
X255981Y80507D01*
X256184Y80314D01*
X256411Y80143D01*
X251804D01*
X251970Y80274D01*
X252118Y80437D01*
X252248Y80632D01*
X252362Y80857D01*
X252457Y81113D01*
X252536Y81400D01*
X252596Y81719D01*
X252640Y82068D01*
X252666Y82449D01*
X252667Y82477D01*
X252663Y82596D01*
X252627Y82946D01*
X252567Y83274D01*
X252483Y83579D01*
X252376Y83862D01*
X252244Y84123D01*
X252089Y84361D01*
X251909Y84577D01*
X251706Y84770D01*
X251478Y84941D01*
X256085D01*
X255920Y84810D01*
D02*
G37*
G36*
X204383Y79781D02*
X204203Y80022D01*
X204003Y80238D01*
X203783Y80429D01*
X203542Y80594D01*
X203282Y80733D01*
X203001Y80848D01*
X202700Y80937D01*
X202378Y81000D01*
X202037Y81038D01*
X201675Y81051D01*
Y83591D01*
X202037Y83604D01*
X202378Y83642D01*
X202700Y83705D01*
X203001Y83794D01*
X203282Y83909D01*
X203542Y84048D01*
X203783Y84213D01*
X204003Y84404D01*
X204203Y84620D01*
X204383Y84861D01*
Y79781D01*
D02*
G37*
G36*
X291982Y78029D02*
X291771Y77806D01*
X291582Y77580D01*
X291415Y77352D01*
X291271Y77123D01*
X291149Y76891D01*
X291050Y76658D01*
X290974Y76423D01*
X290920Y76185D01*
X290889Y75946D01*
X290880Y75706D01*
X287862Y78723D01*
X288103Y78732D01*
X288342Y78763D01*
X288579Y78817D01*
X288815Y78894D01*
X289048Y78993D01*
X289279Y79114D01*
X289509Y79258D01*
X289737Y79425D01*
X289962Y79614D01*
X290186Y79826D01*
X291982Y78029D01*
D02*
G37*
G36*
X256246Y74903D02*
X256098Y74741D01*
X255968Y74546D01*
X255854Y74321D01*
X255758Y74065D01*
X255680Y73778D01*
X255619Y73460D01*
X255576Y73110D01*
X255550Y72730D01*
X255549Y72701D01*
X255553Y72582D01*
X255589Y72232D01*
X255649Y71904D01*
X255732Y71599D01*
X255840Y71316D01*
X255972Y71055D01*
X256127Y70817D01*
X256307Y70601D01*
X256510Y70408D01*
X256737Y70237D01*
X252130D01*
X252296Y70368D01*
X252444Y70532D01*
X252574Y70725D01*
X252687Y70951D01*
X252783Y71207D01*
X252862Y71494D01*
X252922Y71813D01*
X252966Y72162D01*
X252992Y72543D01*
X252993Y72571D01*
X252989Y72690D01*
X252953Y73040D01*
X252893Y73368D01*
X252809Y73673D01*
X252702Y73956D01*
X252570Y74217D01*
X252415Y74455D01*
X252235Y74671D01*
X252032Y74864D01*
X251804Y75035D01*
X256411D01*
X256246Y74903D01*
D02*
G37*
G36*
X291982Y69943D02*
X291771Y69720D01*
X291582Y69494D01*
X291415Y69266D01*
X291271Y69036D01*
X291149Y68805D01*
X291050Y68572D01*
X290974Y68337D01*
X290920Y68099D01*
X290889Y67860D01*
X290880Y67620D01*
X287862Y70637D01*
X288103Y70646D01*
X288342Y70677D01*
X288579Y70731D01*
X288815Y70807D01*
X289048Y70906D01*
X289279Y71028D01*
X289509Y71172D01*
X289737Y71339D01*
X289962Y71528D01*
X290186Y71739D01*
X291982Y69943D01*
D02*
G37*
G36*
X266042Y69808D02*
X266238Y69592D01*
X266453Y69401D01*
X266685Y69236D01*
X266935Y69096D01*
X267203Y68982D01*
X267489Y68893D01*
X267792Y68830D01*
X267944Y68852D01*
X268211Y68909D01*
X268464Y68982D01*
X268703Y69071D01*
X268929Y69176D01*
X269141Y69298D01*
X269340Y69435D01*
X269525Y69589D01*
X269281Y65329D01*
X269114Y65502D01*
X268931Y65657D01*
X268733Y65793D01*
X268519Y65911D01*
X268289Y66012D01*
X268043Y66093D01*
X267782Y66157D01*
X267634Y66181D01*
X267381Y66139D01*
X267072Y66062D01*
X266788Y65962D01*
X266528Y65840D01*
X266294Y65695D01*
X266084Y65529D01*
X265898Y65340D01*
X265737Y65129D01*
X265863Y70049D01*
X266042Y69808D01*
D02*
G37*
G36*
X246951Y66692D02*
X246735Y66492D01*
X246544Y66272D01*
X246379Y66032D01*
X246239Y65771D01*
X246125Y65490D01*
X246036Y65189D01*
X245973Y64867D01*
X245935Y64526D01*
X245934Y64506D01*
X245963Y64232D01*
X246015Y63965D01*
X246087Y63720D01*
X246180Y63498D01*
X246293Y63299D01*
X246428Y63123D01*
X246582Y62970D01*
X246758Y62840D01*
X246954Y62732D01*
X242931Y61310D01*
X243016Y61501D01*
X243093Y61705D01*
X243161Y61922D01*
X243220Y62153D01*
X243310Y62653D01*
X243341Y62924D01*
X243377Y63504D01*
X243382Y63814D01*
X244252Y64164D01*
X243382D01*
X243369Y64526D01*
X243331Y64867D01*
X243268Y65189D01*
X243179Y65490D01*
X243064Y65771D01*
X242925Y66032D01*
X242760Y66272D01*
X242569Y66492D01*
X242353Y66692D01*
X242112Y66872D01*
X247192D01*
X246951Y66692D01*
D02*
G37*
G36*
X266050Y60236D02*
X266250Y60020D01*
X266471Y59829D01*
X266711Y59664D01*
X266972Y59524D01*
X267253Y59410D01*
X267554Y59321D01*
X267876Y59258D01*
X268217Y59220D01*
X268579Y59207D01*
Y56667D01*
X268217Y56654D01*
X267876Y56616D01*
X267554Y56553D01*
X267253Y56464D01*
X266972Y56350D01*
X266711Y56210D01*
X266471Y56045D01*
X266250Y55854D01*
X266050Y55638D01*
X265871Y55397D01*
Y60477D01*
X266050Y60236D01*
D02*
G37*
G36*
X252245Y55397D02*
X252065Y55638D01*
X251865Y55854D01*
X251645Y56045D01*
X251404Y56210D01*
X251144Y56350D01*
X250863Y56464D01*
X250562Y56553D01*
X250240Y56616D01*
X249899Y56654D01*
X249537Y56667D01*
Y59207D01*
X249899Y59220D01*
X250240Y59258D01*
X250562Y59321D01*
X250863Y59410D01*
X251144Y59524D01*
X251404Y59664D01*
X251645Y59829D01*
X251865Y60020D01*
X252065Y60236D01*
X252245Y60477D01*
Y55397D01*
D02*
G37*
G36*
X269018Y47294D02*
X268842Y47459D01*
X268650Y47605D01*
X268445Y47735D01*
X268224Y47847D01*
X267989Y47942D01*
X267740Y48020D01*
X267475Y48080D01*
X267197Y48123D01*
X266903Y48149D01*
X266595Y48158D01*
Y50698D01*
X266903Y50707D01*
X267197Y50732D01*
X267475Y50776D01*
X267740Y50836D01*
X267989Y50914D01*
X268224Y51009D01*
X268445Y51121D01*
X268650Y51251D01*
X268842Y51398D01*
X269018Y51562D01*
Y47294D01*
D02*
G37*
G36*
X293392Y37193D02*
X294234D01*
X294069Y37017D01*
X293923Y36825D01*
X293793Y36620D01*
X293681Y36399D01*
X293595Y36186D01*
X293736Y35770D01*
X294020Y35146D01*
X294386Y34494D01*
X294833Y33817D01*
X295361Y33113D01*
X296662Y31625D01*
X297434Y30842D01*
X286766D01*
X287538Y31625D01*
X288839Y33113D01*
X289367Y33817D01*
X289814Y34494D01*
X290180Y35146D01*
X290464Y35770D01*
X290605Y36186D01*
X290519Y36399D01*
X290407Y36620D01*
X290277Y36825D01*
X290131Y37017D01*
X289966Y37193D01*
X290808D01*
X290830Y37485D01*
X293370D01*
X293392Y37193D01*
D02*
G37*
G36*
X267992D02*
X268834D01*
X268669Y37017D01*
X268523Y36825D01*
X268393Y36620D01*
X268281Y36399D01*
X268195Y36186D01*
X268336Y35770D01*
X268620Y35146D01*
X268986Y34494D01*
X269433Y33817D01*
X269961Y33113D01*
X271262Y31625D01*
X272034Y30842D01*
X261366D01*
X262138Y31625D01*
X263439Y33113D01*
X263967Y33817D01*
X264414Y34494D01*
X264780Y35146D01*
X265064Y35770D01*
X265205Y36186D01*
X265119Y36399D01*
X265007Y36620D01*
X264877Y36825D01*
X264730Y37017D01*
X264566Y37193D01*
X265408D01*
X265430Y37485D01*
X267970D01*
X267992Y37193D01*
D02*
G37*
G36*
X217211Y36940D02*
X217333Y36368D01*
X217536Y35770D01*
X217820Y35146D01*
X218186Y34494D01*
X218633Y33817D01*
X219161Y33113D01*
X220462Y31625D01*
X221234Y30842D01*
X210566D01*
X211338Y31625D01*
X212639Y33113D01*
X213167Y33817D01*
X213614Y34494D01*
X213980Y35146D01*
X214264Y35770D01*
X214467Y36368D01*
X214589Y36940D01*
X214630Y37485D01*
X217170D01*
X217211Y36940D01*
D02*
G37*
G36*
X361070Y34444D02*
X361429Y34139D01*
X361788Y33870D01*
X362147Y33636D01*
X362506Y33438D01*
X362866Y33277D01*
X363225Y33151D01*
X363584Y33061D01*
X363943Y33008D01*
X364303Y32989D01*
X360710Y29397D01*
X360692Y29757D01*
X360639Y30116D01*
X360549Y30475D01*
X360423Y30834D01*
X360261Y31193D01*
X360064Y31553D01*
X359830Y31912D01*
X359561Y32271D01*
X359256Y32630D01*
X358914Y32989D01*
X360710Y34786D01*
X361070Y34444D01*
D02*
G37*
D12*
X254558Y57937D02*
D03*
X263558D02*
D03*
X244782Y87495D02*
D03*
X253782D02*
D03*
X215696Y82321D02*
D03*
X206696D02*
D03*
X237612Y182143D02*
D03*
X246612D02*
D03*
X224332Y127025D02*
D03*
X215332D02*
D03*
X224318Y117213D02*
D03*
X215318D02*
D03*
X272252Y87495D02*
D03*
X263252D02*
D03*
X254434Y67683D02*
D03*
X263434D02*
D03*
X254108Y77589D02*
D03*
X263108D02*
D03*
D13*
X388112Y69850D02*
D03*
X382778Y460502D02*
D03*
X39116Y193802D02*
D03*
D14*
X244652Y78185D02*
D03*
Y69185D02*
D03*
X283006Y161679D02*
D03*
Y152679D02*
D03*
X290880Y130763D02*
D03*
Y121763D02*
D03*
X267855Y158811D02*
D03*
Y167811D02*
D03*
X257606Y158775D02*
D03*
Y167775D02*
D03*
X247446Y158521D02*
D03*
Y167521D02*
D03*
X227126Y167267D02*
D03*
Y158267D02*
D03*
Y148797D02*
D03*
Y139797D02*
D03*
X205790Y126843D02*
D03*
Y135843D02*
D03*
X237286Y167339D02*
D03*
Y158339D02*
D03*
X205790Y117555D02*
D03*
Y108555D02*
D03*
X224074Y106959D02*
D03*
Y97959D02*
D03*
D15*
X236582Y129659D02*
D03*
Y124659D02*
D03*
Y119659D02*
D03*
Y114659D02*
D03*
Y109659D02*
D03*
X275582D02*
D03*
Y114659D02*
D03*
Y124659D02*
D03*
Y129659D02*
D03*
Y119659D02*
D03*
D16*
X246082Y100159D02*
D03*
X251082D02*
D03*
X256082D02*
D03*
X261082D02*
D03*
X266082D02*
D03*
X246082Y139159D02*
D03*
X256082D02*
D03*
X266082D02*
D03*
X251082D02*
D03*
X261082D02*
D03*
D17*
X256082Y119659D02*
D03*
D21*
X133944Y107706D02*
D03*
X186944Y150208D02*
D03*
Y95208D02*
D03*
D22*
X167944Y122707D02*
D03*
X92944D02*
D03*
D26*
X205815Y74930D02*
X210870Y69875D01*
X114046Y102108D02*
X141224Y74930D01*
X205815D01*
X210870Y69875D02*
X215900Y64845D01*
X114046Y102108D02*
Y114554D01*
X266700Y25400D02*
Y39370D01*
X331343Y120523D02*
Y493903D01*
Y120523D02*
X331470Y120396D01*
X164846Y165354D02*
X196596D01*
X114046Y114554D02*
X164846Y165354D01*
X196596D02*
X206040Y155910D01*
X245977Y97429D02*
X246082Y97534D01*
X234696Y88773D02*
X243352Y97429D01*
X234696Y56209D02*
Y88773D01*
X243352Y97429D02*
X245977D01*
X246082Y97534D02*
Y100159D01*
X234696Y56209D02*
X241477Y49428D01*
X279958Y62255D02*
Y69800D01*
X272252Y77506D02*
Y87495D01*
Y77506D02*
X279958Y69800D01*
X292100Y25400D02*
Y39370D01*
X343891Y49809D02*
X368300Y25400D01*
X282244Y49809D02*
X343891D01*
X241477Y49428D02*
X271195D01*
X342900Y121133D02*
Y508000D01*
X331266Y109499D02*
X342900Y121133D01*
X317500Y508000D02*
X318566Y506934D01*
Y118897D02*
Y506934D01*
X206040Y138919D02*
Y155910D01*
Y137073D02*
Y138919D01*
Y135843D02*
Y137073D01*
X223574Y97959D02*
X224074D01*
X229703Y103338D02*
Y105405D01*
X233957Y109659D02*
X236582D01*
X229703Y105405D02*
X233957Y109659D01*
X224324Y97959D02*
X229703Y103338D01*
X161869Y82321D02*
X206696D01*
X215900Y25400D02*
Y64845D01*
X261082Y89915D02*
Y100159D01*
Y89915D02*
X263252Y87745D01*
X263180Y87423D02*
X263252Y87495D01*
X263180Y77661D02*
Y87423D01*
X263108Y77589D02*
X263180Y77661D01*
X224318Y117213D02*
Y117344D01*
X225548Y118574D02*
X232872D01*
X224318Y117344D02*
X225548Y118574D01*
X232872D02*
X233852Y119554D01*
X236477D01*
X236582Y119659D01*
X205790Y97053D02*
X210616Y92227D01*
X205790Y97053D02*
Y108555D01*
X206040Y135843D02*
X207270Y137073D01*
Y138919D01*
X218490Y150139D01*
X275582Y119659D02*
X288526D01*
X275582Y129659D02*
Y145255D01*
X288526Y119659D02*
X290630Y121763D01*
X290880D02*
X291130D01*
X290630D02*
X290880D01*
X291130D02*
X298754Y129387D01*
Y143491D01*
X289566Y152679D02*
X298754Y143491D01*
X282756Y152679D02*
X289566D01*
X264760D02*
X281526D01*
X262474Y150393D02*
X264760Y152679D01*
X281526Y151449D02*
X282756Y152679D01*
X262474Y149843D02*
Y150393D01*
X261082Y139159D02*
Y148451D01*
X275582Y145255D02*
X281526Y151199D01*
Y151449D01*
X261082Y148451D02*
X262474Y149843D01*
X257642Y158811D02*
X267730D01*
X269335Y160191D02*
X270823Y161679D01*
X283006D01*
X268105Y158811D02*
X269335Y160041D01*
Y160191D01*
X267855Y158811D02*
X268105D01*
X257606Y158775D02*
X257642Y158811D01*
X257356Y158775D02*
X257606D01*
X256082Y139159D02*
Y157501D01*
X257356Y158775D01*
X237014Y139159D02*
X246082D01*
X227376Y148797D02*
X237014Y139159D01*
X227126Y148797D02*
Y158267D01*
X215696Y89831D02*
X223824Y97959D01*
X215696Y82321D02*
Y89831D01*
X275629Y109706D02*
X298961D01*
X275582Y109659D02*
X275629Y109706D01*
X298961D02*
X299008Y109753D01*
X256082Y90045D02*
Y100159D01*
X253782Y87745D02*
X256082Y90045D01*
X253782Y87495D02*
X253945Y87332D01*
Y77752D02*
Y87332D01*
Y77752D02*
X254108Y77589D01*
X254271Y77426D01*
Y67846D02*
Y77426D01*
Y67846D02*
X254434Y67683D01*
X274878Y57175D02*
X282244Y49809D01*
X263558Y57937D02*
X274116D01*
X274878Y57175D02*
X279958Y62255D01*
X274116Y57937D02*
X274878Y57175D01*
X266082Y93665D02*
X270772Y88975D01*
X271022D02*
X272252Y87745D01*
X270772Y88975D02*
X271022D01*
X266082Y93665D02*
Y100159D01*
X311708Y91465D02*
Y154203D01*
X283768Y182143D02*
X311708Y154203D01*
X246612Y182143D02*
X283768D01*
X287832Y67589D02*
X311708Y91465D01*
X263434Y67683D02*
X263608Y67509D01*
X271402D02*
X271576Y67335D01*
X263608Y67509D02*
X271402D01*
X291007Y141630D02*
X291134Y141757D01*
X291007Y130890D02*
Y141630D01*
X290880Y130763D02*
X291007Y130890D01*
X124460Y508000D02*
X124587Y507873D01*
Y492887D02*
Y507873D01*
Y492887D02*
X124714Y492760D01*
X257606Y167775D02*
X257624Y167793D01*
X267837D01*
X276094Y167865D02*
X276148Y167919D01*
X267837Y167793D02*
X267909Y167865D01*
X276094D01*
X281206Y124718D02*
X283514Y127025D01*
X275582Y124659D02*
X275641Y124718D01*
X281206D01*
X283514Y127025D02*
Y141757D01*
X266082Y141784D02*
X269155Y144857D01*
X266082Y139159D02*
Y141784D01*
X269155Y145940D02*
X269544Y146329D01*
X269155Y144857D02*
Y145940D01*
X236477Y114554D02*
X236582Y114659D01*
X231919Y114554D02*
X236477D01*
X224324Y106959D02*
X231919Y114554D01*
X224074Y106959D02*
X224324D01*
X247446Y151355D02*
Y158521D01*
X247355Y158430D02*
X247446Y158521D01*
X237377Y158430D02*
X247355D01*
X237286Y158339D02*
X237377Y158430D01*
X247446Y151355D02*
X251082Y147719D01*
Y139159D02*
Y147719D01*
X298101Y118897D02*
X298246D01*
X293863Y114659D02*
X298101Y118897D01*
X275582Y114659D02*
X293863D01*
X224332Y127025D02*
X230249D01*
X232510Y124764D01*
X236477D01*
X236582Y124659D01*
X244782Y87745D02*
X250977Y93940D01*
Y100054D01*
X251082Y100159D01*
X244652Y78185D02*
X244717Y78250D01*
Y87430D01*
X244782Y87495D01*
X227126Y139797D02*
X227376D01*
X233852Y133321D01*
Y129764D02*
Y133321D01*
Y129764D02*
X233957Y129659D01*
X236582D01*
X244652Y61535D02*
Y69185D01*
Y61535D02*
X245668Y60519D01*
Y59969D02*
Y60519D01*
Y59969D02*
X246216D01*
X248248Y57937D01*
X254558D01*
X305104Y92947D02*
Y151409D01*
X287832Y75675D02*
X305104Y92947D01*
X133944Y107706D02*
X136484D01*
X161869Y82321D01*
X215147Y117384D02*
X215318Y117213D01*
X186944Y95208D02*
X191865Y100129D01*
Y103880D01*
X205540Y117555D01*
X205881Y126934D02*
X215241D01*
X205961Y117384D02*
X215147D01*
X191865Y140518D02*
X205540Y126843D01*
X205790D01*
X205540Y117555D02*
X205790D01*
Y126843D02*
X205881Y126934D01*
X205790Y117555D02*
X205961Y117384D01*
X215241Y126934D02*
X215332Y127025D01*
X247446Y167521D02*
X247696D01*
X254952Y174777D01*
X281736D02*
X305104Y151409D01*
X254952Y174777D02*
X281736D01*
X237449Y181980D02*
X237612Y182143D01*
X237449Y167502D02*
Y181980D01*
X227126Y167267D02*
X227162Y167303D01*
X237250D01*
X227035Y167358D02*
X227126Y167267D01*
X237250Y167303D02*
X237286Y167339D01*
X237449Y167502D01*
X191865Y140518D02*
Y145286D01*
X186944Y150208D02*
X191865Y145286D01*
D27*
X215900Y25400D02*
D03*
X342900Y508000D02*
D03*
X124460D02*
D03*
X292100Y25400D02*
D03*
X266700D02*
D03*
X444500D02*
D03*
X469900D02*
D03*
X419100D02*
D03*
X393700D02*
D03*
X495300D02*
D03*
X190500D02*
D03*
X241300D02*
D03*
X165100D02*
D03*
X317500D02*
D03*
X393700Y508000D02*
D03*
X368300D02*
D03*
X419100D02*
D03*
X444500D02*
D03*
X469900D02*
D03*
X495300D02*
D03*
X149860D02*
D03*
X99060D02*
D03*
X73660D02*
D03*
X175260D02*
D03*
X200660D02*
D03*
X226060D02*
D03*
X251460D02*
D03*
X276860D02*
D03*
D28*
X368300Y25400D02*
D03*
X317500Y508000D02*
D03*
X139700Y25400D02*
D03*
X48260Y508000D02*
D03*
D29*
X266700Y39370D02*
D03*
X331343Y493903D02*
D03*
X331470Y120396D02*
D03*
X292100Y39370D02*
D03*
X210870Y69875D02*
D03*
X210616Y92227D02*
D03*
X218490Y150139D02*
D03*
X262474Y150393D02*
D03*
X299008Y109753D02*
D03*
X331266Y109499D02*
D03*
X287832Y67589D02*
D03*
X271195Y49428D02*
D03*
X271576Y67335D02*
D03*
X291134Y141757D02*
D03*
X124714Y492760D02*
D03*
X276148Y167919D02*
D03*
X283514Y141757D02*
D03*
X269544Y146329D02*
D03*
X298246Y118897D02*
D03*
X318566D02*
D03*
X287832Y75675D02*
D03*
X245668Y59969D02*
D03*
M02*
